<mxfile host="app.diagrams.net" modified="2022-10-27T03:56:22.935Z" agent="5.0 (Macintosh; Intel Mac OS X 10_15_7) AppleWebKit/537.36 (KHTML, like Gecko) Chrome/106.0.0.0 Safari/537.36" etag="xH50RDf8iJVoLMjB5DRa" version="20.4.2" type="github">
  <diagram id="C5RBs43oDa-KdzZeNtuy" name="Page-1">
    <mxGraphModel dx="2253" dy="1866" grid="1" gridSize="10" guides="1" tooltips="1" connect="1" arrows="1" fold="1" page="1" pageScale="1" pageWidth="827" pageHeight="1169" math="0" shadow="0">
      <root>
        <mxCell id="WIyWlLk6GJQsqaUBKTNV-0" />
        <mxCell id="WIyWlLk6GJQsqaUBKTNV-1" parent="WIyWlLk6GJQsqaUBKTNV-0" />
        <mxCell id="WIyWlLk6GJQsqaUBKTNV-2" value="" style="rounded=0;html=1;jettySize=auto;orthogonalLoop=1;fontSize=11;endArrow=block;endFill=0;endSize=8;strokeWidth=1;shadow=0;labelBackgroundColor=none;edgeStyle=orthogonalEdgeStyle;" parent="WIyWlLk6GJQsqaUBKTNV-1" target="WIyWlLk6GJQsqaUBKTNV-6" edge="1">
          <mxGeometry relative="1" as="geometry">
            <mxPoint x="-460" y="1404" as="sourcePoint" />
          </mxGeometry>
        </mxCell>
        <mxCell id="WIyWlLk6GJQsqaUBKTNV-3" value="Lamp doesn&#39;t work" style="rounded=1;whiteSpace=wrap;html=1;fontSize=12;glass=0;strokeWidth=1;shadow=0;" parent="WIyWlLk6GJQsqaUBKTNV-1" vertex="1">
          <mxGeometry x="-520" y="1344" width="120" height="40" as="geometry" />
        </mxCell>
        <mxCell id="WIyWlLk6GJQsqaUBKTNV-4" value="Yes" style="rounded=0;html=1;jettySize=auto;orthogonalLoop=1;fontSize=11;endArrow=block;endFill=0;endSize=8;strokeWidth=1;shadow=0;labelBackgroundColor=none;edgeStyle=orthogonalEdgeStyle;" parent="WIyWlLk6GJQsqaUBKTNV-1" source="WIyWlLk6GJQsqaUBKTNV-6" target="WIyWlLk6GJQsqaUBKTNV-10" edge="1">
          <mxGeometry y="20" relative="1" as="geometry">
            <mxPoint as="offset" />
            <Array as="points">
              <mxPoint x="-460" y="1554" />
              <mxPoint x="-460" y="1554" />
            </Array>
          </mxGeometry>
        </mxCell>
        <mxCell id="WIyWlLk6GJQsqaUBKTNV-5" value="No" style="edgeStyle=orthogonalEdgeStyle;rounded=0;html=1;jettySize=auto;orthogonalLoop=1;fontSize=11;endArrow=block;endFill=0;endSize=8;strokeWidth=1;shadow=0;labelBackgroundColor=none;" parent="WIyWlLk6GJQsqaUBKTNV-1" source="WIyWlLk6GJQsqaUBKTNV-6" target="WIyWlLk6GJQsqaUBKTNV-7" edge="1">
          <mxGeometry y="10" relative="1" as="geometry">
            <mxPoint as="offset" />
          </mxGeometry>
        </mxCell>
        <mxCell id="WIyWlLk6GJQsqaUBKTNV-6" value="Lamp&lt;br&gt;plugged in?" style="rhombus;whiteSpace=wrap;html=1;shadow=0;fontFamily=Helvetica;fontSize=12;align=center;strokeWidth=1;spacing=6;spacingTop=-4;" parent="WIyWlLk6GJQsqaUBKTNV-1" vertex="1">
          <mxGeometry x="-510" y="1454" width="100" height="80" as="geometry" />
        </mxCell>
        <mxCell id="WIyWlLk6GJQsqaUBKTNV-7" value="Plug in lamp" style="rounded=1;whiteSpace=wrap;html=1;fontSize=12;glass=0;strokeWidth=1;shadow=0;" parent="WIyWlLk6GJQsqaUBKTNV-1" vertex="1">
          <mxGeometry x="-360" y="1474" width="120" height="40" as="geometry" />
        </mxCell>
        <mxCell id="WIyWlLk6GJQsqaUBKTNV-8" value="No" style="rounded=0;html=1;jettySize=auto;orthogonalLoop=1;fontSize=11;endArrow=block;endFill=0;endSize=8;strokeWidth=1;shadow=0;labelBackgroundColor=none;edgeStyle=orthogonalEdgeStyle;" parent="WIyWlLk6GJQsqaUBKTNV-1" source="WIyWlLk6GJQsqaUBKTNV-10" target="WIyWlLk6GJQsqaUBKTNV-11" edge="1">
          <mxGeometry x="0.3333" y="20" relative="1" as="geometry">
            <mxPoint as="offset" />
          </mxGeometry>
        </mxCell>
        <mxCell id="WIyWlLk6GJQsqaUBKTNV-9" value="Yes" style="edgeStyle=orthogonalEdgeStyle;rounded=0;html=1;jettySize=auto;orthogonalLoop=1;fontSize=11;endArrow=block;endFill=0;endSize=8;strokeWidth=1;shadow=0;labelBackgroundColor=none;" parent="WIyWlLk6GJQsqaUBKTNV-1" source="WIyWlLk6GJQsqaUBKTNV-10" target="WIyWlLk6GJQsqaUBKTNV-12" edge="1">
          <mxGeometry y="10" relative="1" as="geometry">
            <mxPoint as="offset" />
          </mxGeometry>
        </mxCell>
        <mxCell id="WIyWlLk6GJQsqaUBKTNV-10" value="Bulb&lt;br&gt;burned out?" style="rhombus;whiteSpace=wrap;html=1;shadow=0;fontFamily=Helvetica;fontSize=12;align=center;strokeWidth=1;spacing=6;spacingTop=-4;" parent="WIyWlLk6GJQsqaUBKTNV-1" vertex="1">
          <mxGeometry x="-510" y="1574" width="100" height="80" as="geometry" />
        </mxCell>
        <mxCell id="WIyWlLk6GJQsqaUBKTNV-11" value="Repair Lamp" style="rounded=1;whiteSpace=wrap;html=1;fontSize=12;glass=0;strokeWidth=1;shadow=0;" parent="WIyWlLk6GJQsqaUBKTNV-1" vertex="1">
          <mxGeometry x="-520" y="1714" width="120" height="40" as="geometry" />
        </mxCell>
        <mxCell id="WIyWlLk6GJQsqaUBKTNV-12" value="Replace Bulb" style="rounded=1;whiteSpace=wrap;html=1;fontSize=12;glass=0;strokeWidth=1;shadow=0;" parent="WIyWlLk6GJQsqaUBKTNV-1" vertex="1">
          <mxGeometry x="-360" y="1594" width="120" height="40" as="geometry" />
        </mxCell>
        <mxCell id="BRy57ZXzOiXBV_z8K8NF-5" style="edgeStyle=orthogonalEdgeStyle;rounded=0;orthogonalLoop=1;jettySize=auto;html=1;" parent="WIyWlLk6GJQsqaUBKTNV-1" source="BRy57ZXzOiXBV_z8K8NF-0" target="BRy57ZXzOiXBV_z8K8NF-2" edge="1">
          <mxGeometry relative="1" as="geometry" />
        </mxCell>
        <mxCell id="BRy57ZXzOiXBV_z8K8NF-8" value="&lt;span style=&quot;color: rgb(0, 0, 204);&quot;&gt;/instance/index.js&lt;/span&gt;" style="edgeLabel;html=1;align=center;verticalAlign=middle;resizable=0;points=[];" parent="BRy57ZXzOiXBV_z8K8NF-5" vertex="1" connectable="0">
          <mxGeometry x="-0.2143" y="-2" relative="1" as="geometry">
            <mxPoint x="2" y="-115" as="offset" />
          </mxGeometry>
        </mxCell>
        <mxCell id="BRy57ZXzOiXBV_z8K8NF-33" value="&lt;span style=&quot;color: rgb(0, 0, 204);&quot;&gt;/instance/index.js&lt;/span&gt;" style="edgeLabel;html=1;align=center;verticalAlign=middle;resizable=0;points=[];" parent="BRy57ZXzOiXBV_z8K8NF-5" vertex="1" connectable="0">
          <mxGeometry x="-0.2143" y="-2" relative="1" as="geometry">
            <mxPoint x="2" y="-465" as="offset" />
          </mxGeometry>
        </mxCell>
        <mxCell id="BRy57ZXzOiXBV_z8K8NF-0" value="new Vue" style="rounded=1;whiteSpace=wrap;html=1;fontSize=12;glass=0;strokeWidth=1;shadow=0;" parent="WIyWlLk6GJQsqaUBKTNV-1" vertex="1">
          <mxGeometry x="90" y="230" width="120" height="40" as="geometry" />
        </mxCell>
        <mxCell id="BRy57ZXzOiXBV_z8K8NF-44" style="edgeStyle=orthogonalEdgeStyle;rounded=0;orthogonalLoop=1;jettySize=auto;html=1;entryX=0;entryY=0.5;entryDx=0;entryDy=0;fontColor=#009900;" parent="WIyWlLk6GJQsqaUBKTNV-1" source="BRy57ZXzOiXBV_z8K8NF-2" target="BRy57ZXzOiXBV_z8K8NF-35" edge="1">
          <mxGeometry relative="1" as="geometry" />
        </mxCell>
        <mxCell id="BRy57ZXzOiXBV_z8K8NF-2" value="_init(options)" style="rounded=1;whiteSpace=wrap;html=1;" parent="WIyWlLk6GJQsqaUBKTNV-1" vertex="1">
          <mxGeometry x="90" y="520" width="120" height="60" as="geometry" />
        </mxCell>
        <mxCell id="BRy57ZXzOiXBV_z8K8NF-3" value="&lt;div style=&quot;background-color: rgb(255, 255, 255); font-family: Menlo, Monaco, &amp;quot;Courier New&amp;quot;, monospace; line-height: 18px;&quot;&gt;initState(vm)&lt;/div&gt;" style="rounded=1;whiteSpace=wrap;html=1;" parent="WIyWlLk6GJQsqaUBKTNV-1" vertex="1">
          <mxGeometry x="405" y="690" width="145" height="60" as="geometry" />
        </mxCell>
        <mxCell id="BRy57ZXzOiXBV_z8K8NF-11" style="edgeStyle=orthogonalEdgeStyle;rounded=0;orthogonalLoop=1;jettySize=auto;html=1;entryX=0;entryY=0.5;entryDx=0;entryDy=0;fontColor=#000000;" parent="WIyWlLk6GJQsqaUBKTNV-1" source="BRy57ZXzOiXBV_z8K8NF-9" target="BRy57ZXzOiXBV_z8K8NF-0" edge="1">
          <mxGeometry relative="1" as="geometry" />
        </mxCell>
        <mxCell id="BRy57ZXzOiXBV_z8K8NF-9" value="&lt;font color=&quot;#000000&quot;&gt;开始&lt;/font&gt;" style="ellipse;whiteSpace=wrap;html=1;fontColor=#009900;" parent="WIyWlLk6GJQsqaUBKTNV-1" vertex="1">
          <mxGeometry x="-150" y="225" width="70" height="50" as="geometry" />
        </mxCell>
        <mxCell id="BRy57ZXzOiXBV_z8K8NF-30" style="edgeStyle=orthogonalEdgeStyle;rounded=0;orthogonalLoop=1;jettySize=auto;html=1;entryX=0;entryY=0.5;entryDx=0;entryDy=0;fontColor=#000000;" parent="WIyWlLk6GJQsqaUBKTNV-1" source="BRy57ZXzOiXBV_z8K8NF-10" target="BRy57ZXzOiXBV_z8K8NF-15" edge="1">
          <mxGeometry relative="1" as="geometry" />
        </mxCell>
        <mxCell id="BRy57ZXzOiXBV_z8K8NF-10" value="文件首次被加载" style="rounded=1;whiteSpace=wrap;html=1;fontSize=12;glass=0;strokeWidth=1;shadow=0;" parent="WIyWlLk6GJQsqaUBKTNV-1" vertex="1">
          <mxGeometry x="90" y="-122.5" width="120" height="40" as="geometry" />
        </mxCell>
        <mxCell id="BRy57ZXzOiXBV_z8K8NF-12" value="" style="endArrow=none;dashed=1;html=1;dashPattern=1 3;strokeWidth=2;rounded=0;fontColor=#000000;exitX=0.5;exitY=1;exitDx=0;exitDy=0;entryX=0.5;entryY=0;entryDx=0;entryDy=0;" parent="WIyWlLk6GJQsqaUBKTNV-1" source="BRy57ZXzOiXBV_z8K8NF-10" target="BRy57ZXzOiXBV_z8K8NF-0" edge="1">
          <mxGeometry width="50" height="50" relative="1" as="geometry">
            <mxPoint x="40" y="290" as="sourcePoint" />
            <mxPoint x="90" y="240" as="targetPoint" />
          </mxGeometry>
        </mxCell>
        <mxCell id="QtsyUdyrllRx52qRrB19-8" value="/instance/index" style="edgeLabel;html=1;align=center;verticalAlign=middle;resizable=0;points=[];" parent="BRy57ZXzOiXBV_z8K8NF-12" vertex="1" connectable="0">
          <mxGeometry x="-0.184" y="3" relative="1" as="geometry">
            <mxPoint x="-13" y="-185" as="offset" />
          </mxGeometry>
        </mxCell>
        <mxCell id="BRy57ZXzOiXBV_z8K8NF-19" value="" style="edgeStyle=orthogonalEdgeStyle;rounded=0;orthogonalLoop=1;jettySize=auto;html=1;fontColor=#000000;" parent="WIyWlLk6GJQsqaUBKTNV-1" source="BRy57ZXzOiXBV_z8K8NF-13" target="BRy57ZXzOiXBV_z8K8NF-18" edge="1">
          <mxGeometry relative="1" as="geometry" />
        </mxCell>
        <mxCell id="BRy57ZXzOiXBV_z8K8NF-13" value="&lt;div style=&quot;background-color: rgb(255, 255, 255); font-family: Menlo, Monaco, &amp;quot;Courier New&amp;quot;, monospace; line-height: 18px;&quot;&gt;initMixin(Vue)&lt;/div&gt;" style="rounded=1;whiteSpace=wrap;html=1;" parent="WIyWlLk6GJQsqaUBKTNV-1" vertex="1">
          <mxGeometry x="410" y="-362.5" width="150" height="60" as="geometry" />
        </mxCell>
        <mxCell id="BRy57ZXzOiXBV_z8K8NF-24" value="" style="edgeStyle=orthogonalEdgeStyle;rounded=0;orthogonalLoop=1;jettySize=auto;html=1;fontColor=#000000;" parent="WIyWlLk6GJQsqaUBKTNV-1" source="BRy57ZXzOiXBV_z8K8NF-14" target="BRy57ZXzOiXBV_z8K8NF-20" edge="1">
          <mxGeometry relative="1" as="geometry" />
        </mxCell>
        <mxCell id="BRy57ZXzOiXBV_z8K8NF-14" value="&lt;div style=&quot;background-color: rgb(255, 255, 255); font-family: Menlo, Monaco, &amp;quot;Courier New&amp;quot;, monospace; line-height: 18px;&quot;&gt;&lt;div style=&quot;line-height: 18px;&quot;&gt;stateMixin(Vue)&lt;/div&gt;&lt;/div&gt;" style="rounded=1;whiteSpace=wrap;html=1;" parent="WIyWlLk6GJQsqaUBKTNV-1" vertex="1">
          <mxGeometry x="410" y="-252.5" width="150" height="60" as="geometry" />
        </mxCell>
        <mxCell id="BRy57ZXzOiXBV_z8K8NF-25" value="" style="edgeStyle=orthogonalEdgeStyle;rounded=0;orthogonalLoop=1;jettySize=auto;html=1;fontColor=#000000;" parent="WIyWlLk6GJQsqaUBKTNV-1" source="BRy57ZXzOiXBV_z8K8NF-15" target="BRy57ZXzOiXBV_z8K8NF-21" edge="1">
          <mxGeometry relative="1" as="geometry" />
        </mxCell>
        <mxCell id="BRy57ZXzOiXBV_z8K8NF-15" value="&lt;div style=&quot;background-color: rgb(255, 255, 255); font-family: Menlo, Monaco, &amp;quot;Courier New&amp;quot;, monospace; line-height: 18px;&quot;&gt;&lt;div style=&quot;line-height: 18px;&quot;&gt;&lt;div style=&quot;line-height: 18px;&quot;&gt;eventsMixin(Vue)&lt;/div&gt;&lt;/div&gt;&lt;/div&gt;" style="rounded=1;whiteSpace=wrap;html=1;" parent="WIyWlLk6GJQsqaUBKTNV-1" vertex="1">
          <mxGeometry x="410" y="-132.5" width="150" height="60" as="geometry" />
        </mxCell>
        <mxCell id="BRy57ZXzOiXBV_z8K8NF-26" value="" style="edgeStyle=orthogonalEdgeStyle;rounded=0;orthogonalLoop=1;jettySize=auto;html=1;fontColor=#000000;" parent="WIyWlLk6GJQsqaUBKTNV-1" source="BRy57ZXzOiXBV_z8K8NF-16" target="BRy57ZXzOiXBV_z8K8NF-22" edge="1">
          <mxGeometry relative="1" as="geometry" />
        </mxCell>
        <mxCell id="BRy57ZXzOiXBV_z8K8NF-16" value="&lt;div style=&quot;background-color: rgb(255, 255, 255); font-family: Menlo, Monaco, &amp;quot;Courier New&amp;quot;, monospace; line-height: 18px;&quot;&gt;&lt;div style=&quot;line-height: 18px;&quot;&gt;&lt;div style=&quot;line-height: 18px;&quot;&gt;&lt;div style=&quot;line-height: 18px;&quot;&gt;lifecycleMixin(Vue)&lt;/div&gt;&lt;/div&gt;&lt;/div&gt;&lt;/div&gt;" style="rounded=1;whiteSpace=wrap;html=1;" parent="WIyWlLk6GJQsqaUBKTNV-1" vertex="1">
          <mxGeometry x="410" y="-20" width="150" height="60" as="geometry" />
        </mxCell>
        <mxCell id="BRy57ZXzOiXBV_z8K8NF-27" value="" style="edgeStyle=orthogonalEdgeStyle;rounded=0;orthogonalLoop=1;jettySize=auto;html=1;fontColor=#000000;" parent="WIyWlLk6GJQsqaUBKTNV-1" source="BRy57ZXzOiXBV_z8K8NF-17" target="BRy57ZXzOiXBV_z8K8NF-23" edge="1">
          <mxGeometry relative="1" as="geometry" />
        </mxCell>
        <mxCell id="BRy57ZXzOiXBV_z8K8NF-17" value="&lt;div style=&quot;background-color: rgb(255, 255, 255); font-family: Menlo, Monaco, &amp;quot;Courier New&amp;quot;, monospace; line-height: 18px;&quot;&gt;&lt;div style=&quot;line-height: 18px;&quot;&gt;&lt;div style=&quot;line-height: 18px;&quot;&gt;&lt;div style=&quot;line-height: 18px;&quot;&gt;&lt;div style=&quot;line-height: 18px;&quot;&gt;renderMixin(Vue)&lt;/div&gt;&lt;/div&gt;&lt;/div&gt;&lt;/div&gt;&lt;/div&gt;" style="rounded=1;whiteSpace=wrap;html=1;" parent="WIyWlLk6GJQsqaUBKTNV-1" vertex="1">
          <mxGeometry x="410" y="87.5" width="150" height="60" as="geometry" />
        </mxCell>
        <mxCell id="BRy57ZXzOiXBV_z8K8NF-18" value="&lt;div style=&quot;background-color: rgb(255, 255, 255); font-family: Menlo, Monaco, &amp;quot;Courier New&amp;quot;, monospace; line-height: 18px;&quot;&gt;&lt;span style=&quot;&quot;&gt;设置原型方法&lt;/span&gt;&lt;/div&gt;&lt;div style=&quot;background-color: rgb(255, 255, 255); font-family: Menlo, Monaco, &amp;quot;Courier New&amp;quot;, monospace; line-height: 18px;&quot;&gt;&lt;span style=&quot;&quot;&gt;&lt;font color=&quot;#808080&quot;&gt;Vue.prototype._init&amp;nbsp;&lt;/font&gt;&lt;/span&gt;&lt;span style=&quot;&quot;&gt;&lt;/span&gt;&lt;/div&gt;" style="rounded=1;whiteSpace=wrap;html=1;" parent="WIyWlLk6GJQsqaUBKTNV-1" vertex="1">
          <mxGeometry x="650" y="-370" width="210" height="75" as="geometry" />
        </mxCell>
        <mxCell id="BRy57ZXzOiXBV_z8K8NF-20" value="&lt;div style=&quot;background-color: rgb(255, 255, 255); font-family: Menlo, Monaco, &amp;quot;Courier New&amp;quot;, monospace; line-height: 18px;&quot;&gt;&lt;span style=&quot;&quot;&gt;设置原型方法&lt;/span&gt;&lt;/div&gt;&lt;div style=&quot;text-align: left; background-color: rgb(255, 255, 255); font-family: Menlo, Monaco, &amp;quot;Courier New&amp;quot;, monospace; line-height: 18px;&quot;&gt;&lt;span style=&quot;&quot;&gt;&lt;font color=&quot;#808080&quot;&gt;Vue.prototype.$set&lt;/font&gt;&lt;/span&gt;&lt;/div&gt;&lt;font color=&quot;#808080&quot;&gt;&lt;span style=&quot;font-family: Menlo, Monaco, &amp;quot;Courier New&amp;quot;, monospace; background-color: rgb(255, 255, 255);&quot;&gt;&lt;div style=&quot;text-align: left;&quot;&gt;Vue.prototype.$delete&lt;/div&gt;&lt;/span&gt;&lt;span style=&quot;font-family: Menlo, Monaco, &amp;quot;Courier New&amp;quot;, monospace; background-color: rgb(255, 255, 255);&quot;&gt;&lt;div style=&quot;text-align: left;&quot;&gt;Vue.prototype.$watch&lt;/div&gt;&lt;/span&gt;&lt;/font&gt;&lt;div style=&quot;background-color: rgb(255, 255, 255); font-family: Menlo, Monaco, &amp;quot;Courier New&amp;quot;, monospace; line-height: 18px;&quot;&gt;&lt;span style=&quot;&quot;&gt;&amp;nbsp;&lt;/span&gt;&lt;span style=&quot;&quot;&gt;&lt;/span&gt;&lt;/div&gt;" style="rounded=1;whiteSpace=wrap;html=1;" parent="WIyWlLk6GJQsqaUBKTNV-1" vertex="1">
          <mxGeometry x="650" y="-272.5" width="210" height="100" as="geometry" />
        </mxCell>
        <mxCell id="BRy57ZXzOiXBV_z8K8NF-21" value="&lt;div style=&quot;background-color: rgb(255, 255, 255); font-family: Menlo, Monaco, &amp;quot;Courier New&amp;quot;, monospace; line-height: 18px;&quot;&gt;&lt;span style=&quot;&quot;&gt;设置原型方法&lt;/span&gt;&lt;/div&gt;&lt;div style=&quot;text-align: left; background-color: rgb(255, 255, 255); font-family: Menlo, Monaco, &amp;quot;Courier New&amp;quot;, monospace; line-height: 18px;&quot;&gt;&lt;span style=&quot;&quot;&gt;&lt;font color=&quot;#808080&quot;&gt;Vue.prototype.$on&lt;/font&gt;&lt;/span&gt;&lt;/div&gt;&lt;span style=&quot;font-family: Menlo, Monaco, &amp;quot;Courier New&amp;quot;, monospace; background-color: rgb(255, 255, 255);&quot;&gt;&lt;div style=&quot;text-align: left;&quot;&gt;&lt;font color=&quot;#808080&quot;&gt;Vue.prototype.$once&lt;/font&gt;&lt;/div&gt;&lt;/span&gt;&lt;span style=&quot;font-family: Menlo, Monaco, &amp;quot;Courier New&amp;quot;, monospace; background-color: rgb(255, 255, 255);&quot;&gt;&lt;div style=&quot;text-align: left;&quot;&gt;&lt;font color=&quot;#808080&quot;&gt;Vue.prototype.$off&lt;/font&gt;&lt;/div&gt;&lt;div style=&quot;text-align: left;&quot;&gt;&lt;span style=&quot;text-align: center;&quot;&gt;&lt;font color=&quot;#808080&quot;&gt;Vue.prototype.$emit&lt;/font&gt;&lt;/span&gt;&lt;br&gt;&lt;/div&gt;&lt;/span&gt;&lt;div style=&quot;background-color: rgb(255, 255, 255); font-family: Menlo, Monaco, &amp;quot;Courier New&amp;quot;, monospace; line-height: 18px;&quot;&gt;&lt;span style=&quot;&quot;&gt;&amp;nbsp;&lt;/span&gt;&lt;span style=&quot;&quot;&gt;&lt;/span&gt;&lt;/div&gt;" style="rounded=1;whiteSpace=wrap;html=1;" parent="WIyWlLk6GJQsqaUBKTNV-1" vertex="1">
          <mxGeometry x="647" y="-152.5" width="203" height="100" as="geometry" />
        </mxCell>
        <mxCell id="BRy57ZXzOiXBV_z8K8NF-22" value="&lt;div style=&quot;background-color: rgb(255, 255, 255); font-family: Menlo, Monaco, &amp;quot;Courier New&amp;quot;, monospace; line-height: 18px;&quot;&gt;&lt;span style=&quot;&quot;&gt;设置原型方法&lt;/span&gt;&lt;/div&gt;&lt;div style=&quot;text-align: left; background-color: rgb(255, 255, 255); font-family: Menlo, Monaco, &amp;quot;Courier New&amp;quot;, monospace; line-height: 18px;&quot;&gt;&lt;span style=&quot;&quot;&gt;&lt;font color=&quot;#808080&quot;&gt;Vue.prototype._update&lt;/font&gt;&lt;/span&gt;&lt;/div&gt;&lt;font color=&quot;#808080&quot;&gt;&lt;span style=&quot;font-family: Menlo, Monaco, &amp;quot;Courier New&amp;quot;, monospace; background-color: rgb(255, 255, 255);&quot;&gt;&lt;div style=&quot;text-align: left;&quot;&gt;Vue.prototype.$&lt;span style=&quot;text-align: center;&quot;&gt;forceUpdate&lt;/span&gt;&lt;/div&gt;&lt;/span&gt;&lt;span style=&quot;font-family: Menlo, Monaco, &amp;quot;Courier New&amp;quot;, monospace; background-color: rgb(255, 255, 255);&quot;&gt;&lt;div style=&quot;text-align: left;&quot;&gt;Vue.prototype.$&lt;span style=&quot;text-align: center;&quot;&gt;destroy&lt;/span&gt;&lt;/div&gt;&lt;/span&gt;&lt;/font&gt;&lt;div style=&quot;background-color: rgb(255, 255, 255); font-family: Menlo, Monaco, &amp;quot;Courier New&amp;quot;, monospace; line-height: 18px;&quot;&gt;&lt;span style=&quot;&quot;&gt;&amp;nbsp;&lt;/span&gt;&lt;span style=&quot;&quot;&gt;&lt;/span&gt;&lt;/div&gt;" style="rounded=1;whiteSpace=wrap;html=1;" parent="WIyWlLk6GJQsqaUBKTNV-1" vertex="1">
          <mxGeometry x="650" y="-40" width="200" height="100" as="geometry" />
        </mxCell>
        <mxCell id="BRy57ZXzOiXBV_z8K8NF-23" value="&lt;div style=&quot;background-color: rgb(255, 255, 255); font-family: Menlo, Monaco, &amp;quot;Courier New&amp;quot;, monospace; line-height: 18px;&quot;&gt;&lt;span style=&quot;&quot;&gt;设置原型方法&lt;/span&gt;&lt;/div&gt;&lt;div style=&quot;text-align: left; background-color: rgb(255, 255, 255); font-family: Menlo, Monaco, &amp;quot;Courier New&amp;quot;, monospace; line-height: 18px;&quot;&gt;&lt;font color=&quot;#808080&quot;&gt;Vue.prototype.&lt;span style=&quot;text-align: center;&quot;&gt;_render&lt;/span&gt;&lt;/font&gt;&lt;/div&gt;&lt;font color=&quot;#808080&quot;&gt;&lt;span style=&quot;font-family: Menlo, Monaco, &amp;quot;Courier New&amp;quot;, monospace; background-color: rgb(255, 255, 255);&quot;&gt;&lt;div style=&quot;text-align: left;&quot;&gt;Vue.prototype.$&lt;span style=&quot;text-align: center;&quot;&gt;nextTick&lt;/span&gt;&lt;/div&gt;&lt;/span&gt;&lt;span style=&quot;font-family: Menlo, Monaco, &amp;quot;Courier New&amp;quot;, monospace; background-color: rgb(255, 255, 255);&quot;&gt;&lt;div style=&quot;text-align: left;&quot;&gt;Vue.prototype.$&lt;span style=&quot;text-align: center;&quot;&gt;destroy&lt;/span&gt;&lt;/div&gt;&lt;/span&gt;&lt;/font&gt;&lt;div style=&quot;background-color: rgb(255, 255, 255); font-family: Menlo, Monaco, &amp;quot;Courier New&amp;quot;, monospace; line-height: 18px;&quot;&gt;&lt;span style=&quot;&quot;&gt;&amp;nbsp;&lt;/span&gt;&lt;span style=&quot;&quot;&gt;&lt;/span&gt;&lt;/div&gt;" style="rounded=1;whiteSpace=wrap;html=1;" parent="WIyWlLk6GJQsqaUBKTNV-1" vertex="1">
          <mxGeometry x="650" y="67.5" width="200" height="100" as="geometry" />
        </mxCell>
        <mxCell id="BRy57ZXzOiXBV_z8K8NF-60" value="" style="edgeStyle=orthogonalEdgeStyle;rounded=0;orthogonalLoop=1;jettySize=auto;html=1;fontColor=#808080;" parent="WIyWlLk6GJQsqaUBKTNV-1" source="BRy57ZXzOiXBV_z8K8NF-34" target="BRy57ZXzOiXBV_z8K8NF-46" edge="1">
          <mxGeometry relative="1" as="geometry" />
        </mxCell>
        <mxCell id="BRy57ZXzOiXBV_z8K8NF-34" value="&lt;span style=&quot;background-color: rgb(255, 255, 255); font-family: Menlo, Monaco, &amp;quot;Courier New&amp;quot;, monospace;&quot;&gt;initLifecycle(vm)&lt;/span&gt;" style="rounded=1;whiteSpace=wrap;html=1;" parent="WIyWlLk6GJQsqaUBKTNV-1" vertex="1">
          <mxGeometry x="410" y="200" width="150" height="60" as="geometry" />
        </mxCell>
        <mxCell id="BRy57ZXzOiXBV_z8K8NF-64" style="edgeStyle=orthogonalEdgeStyle;rounded=0;orthogonalLoop=1;jettySize=auto;html=1;fontColor=#808080;" parent="WIyWlLk6GJQsqaUBKTNV-1" source="BRy57ZXzOiXBV_z8K8NF-35" target="BRy57ZXzOiXBV_z8K8NF-50" edge="1">
          <mxGeometry relative="1" as="geometry" />
        </mxCell>
        <mxCell id="BRy57ZXzOiXBV_z8K8NF-35" value="&lt;div style=&quot;background-color: rgb(255, 255, 255); font-family: Menlo, Monaco, &amp;quot;Courier New&amp;quot;, monospace; line-height: 18px;&quot;&gt;&lt;div style=&quot;line-height: 18px;&quot;&gt;initInjections(vm) &lt;/div&gt;&lt;/div&gt;" style="rounded=1;whiteSpace=wrap;html=1;" parent="WIyWlLk6GJQsqaUBKTNV-1" vertex="1">
          <mxGeometry x="410" y="520" width="150" height="60" as="geometry" />
        </mxCell>
        <mxCell id="BRy57ZXzOiXBV_z8K8NF-36" value="&lt;div style=&quot;background-color: rgb(255, 255, 255); font-family: Menlo, Monaco, &amp;quot;Courier New&amp;quot;, monospace; line-height: 18px;&quot;&gt;&lt;div style=&quot;line-height: 18px;&quot;&gt;&lt;div style=&quot;line-height: 18px;&quot;&gt;生命周期钩子&lt;/div&gt;&lt;div style=&quot;line-height: 18px;&quot;&gt;&lt;span style=&quot;color: #a31515;&quot;&gt;beforeCreate&lt;/span&gt;&lt;/div&gt;&lt;/div&gt;&lt;/div&gt;" style="rounded=1;whiteSpace=wrap;html=1;" parent="WIyWlLk6GJQsqaUBKTNV-1" vertex="1">
          <mxGeometry x="410" y="430" width="150" height="60" as="geometry" />
        </mxCell>
        <mxCell id="BRy57ZXzOiXBV_z8K8NF-62" style="edgeStyle=orthogonalEdgeStyle;rounded=0;orthogonalLoop=1;jettySize=auto;html=1;entryX=0;entryY=0.5;entryDx=0;entryDy=0;fontColor=#808080;" parent="WIyWlLk6GJQsqaUBKTNV-1" source="BRy57ZXzOiXBV_z8K8NF-37" target="BRy57ZXzOiXBV_z8K8NF-47" edge="1">
          <mxGeometry relative="1" as="geometry" />
        </mxCell>
        <mxCell id="BRy57ZXzOiXBV_z8K8NF-37" value="&lt;div style=&quot;background-color: rgb(255, 255, 255); font-family: Menlo, Monaco, &amp;quot;Courier New&amp;quot;, monospace; line-height: 18px;&quot;&gt;initEvents(vm)&lt;/div&gt;" style="rounded=1;whiteSpace=wrap;html=1;" parent="WIyWlLk6GJQsqaUBKTNV-1" vertex="1">
          <mxGeometry x="410" y="270" width="150" height="60" as="geometry" />
        </mxCell>
        <mxCell id="BRy57ZXzOiXBV_z8K8NF-39" value="&lt;div style=&quot;background-color: rgb(255, 255, 255); font-family: Menlo, Monaco, &amp;quot;Courier New&amp;quot;, monospace; line-height: 18px;&quot;&gt;&lt;div style=&quot;line-height: 18px;&quot;&gt;&lt;div style=&quot;line-height: 18px;&quot;&gt;&lt;div style=&quot;line-height: 18px;&quot;&gt;生命周期钩子&lt;/div&gt;&lt;div style=&quot;line-height: 18px;&quot;&gt;&lt;span style=&quot;color: #a31515;&quot;&gt;created&lt;/span&gt;&lt;/div&gt;&lt;/div&gt;&lt;/div&gt;&lt;/div&gt;" style="rounded=1;whiteSpace=wrap;html=1;" parent="WIyWlLk6GJQsqaUBKTNV-1" vertex="1">
          <mxGeometry x="400" y="865" width="145" height="60" as="geometry" />
        </mxCell>
        <mxCell id="BRy57ZXzOiXBV_z8K8NF-43" value="&lt;div style=&quot;background-color: rgb(255, 255, 255); font-family: Menlo, Monaco, &amp;quot;Courier New&amp;quot;, monospace; line-height: 18px;&quot;&gt;&lt;div style=&quot;line-height: 18px;&quot;&gt;&lt;div style=&quot;line-height: 18px;&quot;&gt;vm.$mount(el)&lt;/div&gt;&lt;/div&gt;&lt;/div&gt;" style="rounded=1;whiteSpace=wrap;html=1;" parent="WIyWlLk6GJQsqaUBKTNV-1" vertex="1">
          <mxGeometry x="400" y="1420" width="145" height="60" as="geometry" />
        </mxCell>
        <mxCell id="BRy57ZXzOiXBV_z8K8NF-46" value="&lt;div style=&quot;background-color: rgb(255, 255, 255); font-family: Menlo, Monaco, &amp;quot;Courier New&amp;quot;, monospace; line-height: 18px;&quot;&gt;&lt;span style=&quot;&quot;&gt;重置实例vm的生命周期相关属性&lt;/span&gt;&lt;/div&gt;&lt;div style=&quot;text-align: left; background-color: rgb(255, 255, 255); font-family: Menlo, Monaco, &amp;quot;Courier New&amp;quot;, monospace; line-height: 18px;&quot;&gt;&lt;div&gt;&lt;font color=&quot;#808080&quot;&gt;vm._watcher =&amp;nbsp;null&lt;/font&gt;&lt;/div&gt;&lt;div&gt;&lt;font color=&quot;#808080&quot;&gt;vm._isMounted =&amp;nbsp;false&lt;/font&gt;&lt;span style=&quot;text-align: center;&quot;&gt;&amp;nbsp;&lt;/span&gt;&lt;/div&gt;&lt;/div&gt;&lt;div style=&quot;background-color: rgb(255, 255, 255); font-family: Menlo, Monaco, &amp;quot;Courier New&amp;quot;, monospace; line-height: 18px;&quot;&gt;&lt;span style=&quot;&quot;&gt;&lt;/span&gt;&lt;/div&gt;" style="rounded=1;whiteSpace=wrap;html=1;" parent="WIyWlLk6GJQsqaUBKTNV-1" vertex="1">
          <mxGeometry x="660" y="200" width="200" height="60" as="geometry" />
        </mxCell>
        <mxCell id="BRy57ZXzOiXBV_z8K8NF-47" value="&lt;div style=&quot;background-color: rgb(255, 255, 255); font-family: Menlo, Monaco, &amp;quot;Courier New&amp;quot;, monospace; line-height: 18px;&quot;&gt;&lt;span style=&quot;&quot;&gt;重置实例vm的事件相关属性&lt;/span&gt;&lt;/div&gt;&lt;div style=&quot;text-align: left; background-color: rgb(255, 255, 255); font-family: Menlo, Monaco, &amp;quot;Courier New&amp;quot;, monospace; line-height: 18px;&quot;&gt;&lt;div&gt;&lt;span style=&quot;background-color: rgb(248, 249, 250); color: rgba(0, 0, 0, 0); font-family: monospace; font-size: 0px;&quot;&gt;%3CmxGraphModel%3E%3Croot%3E%3CmxCell%20id%3D%220%22%2F%3E%3CmxCell%20id%3D%221%22%20parent%3D%220%22%2F%3E%3CmxCell%20id%3D%222%22%20value%3D%22%26lt%3Bdiv%20style%3D%26quot%3Bbackground-color%3A%20rgb(255%2C%20255%2C%20255)%3B%20font-family%3A%20Menlo%2C%20Monaco%2C%20%26amp%3Bquot%3BCourier%20New%26amp%3Bquot%3B%2C%20monospace%3B%20line-height%3A%2018px%3B%26quot%3B%26gt%3B%26lt%3Bspan%20style%3D%26quot%3B%26quot%3B%26gt%3B%E9%87%8D%E7%BD%AE%E5%AE%9E%E4%BE%8B%E7%9A%84%E7%94%9F%E5%91%BD%E5%91%A8%E6%9C%9F%E7%9B%B8%E5%85%B3%E5%B1%9E%E6%80%A7%26lt%3B%2Fspan%26gt%3B%26lt%3B%2Fdiv%26gt%3B%26lt%3Bdiv%20style%3D%26quot%3Btext-align%3A%20left%3B%20background-color%3A%20rgb(255%2C%20255%2C%20255)%3B%20font-family%3A%20Menlo%2C%20Monaco%2C%20%26amp%3Bquot%3BCourier%20New%26amp%3Bquot%3B%2C%20monospace%3B%20line-height%3A%2018px%3B%26quot%3B%26gt%3B%26lt%3Bdiv%26gt%3B%26lt%3Bfont%20color%3D%26quot%3B%23808080%26quot%3B%26gt%3Bvm._watcher%20%3D%26amp%3Bnbsp%3Bnull%26lt%3B%2Ffont%26gt%3B%26lt%3B%2Fdiv%26gt%3B%26lt%3Bdiv%26gt%3B%26lt%3Bfont%20color%3D%26quot%3B%23808080%26quot%3B%26gt%3Bvm._isMounted%20%3D%26amp%3Bnbsp%3Bfalse%26lt%3B%2Ffont%26gt%3B%26lt%3Bspan%20style%3D%26quot%3Btext-align%3A%20center%3B%26quot%3B%26gt%3B%26amp%3Bnbsp%3B%26lt%3B%2Fspan%26gt%3B%26lt%3B%2Fdiv%26gt%3B%26lt%3B%2Fdiv%26gt%3B%26lt%3Bdiv%20style%3D%26quot%3Bbackground-color%3A%20rgb(255%2C%20255%2C%20255)%3B%20font-family%3A%20Menlo%2C%20Monaco%2C%20%26amp%3Bquot%3BCourier%20New%26amp%3Bquot%3B%2C%20monospace%3B%20line-height%3A%2018px%3B%26quot%3B%26gt%3B%26lt%3Bspan%20style%3D%26quot%3B%26quot%3B%26gt%3B%26lt%3B%2Fspan%26gt%3B%26lt%3B%2Fdiv%26gt%3B%22%20style%3D%22rounded%3D1%3BwhiteSpace%3Dwrap%3Bhtml%3D1%3B%22%20vertex%3D%221%22%20parent%3D%221%22%3E%3CmxGeometry%20x%3D%22660%22%20y%3D%22190%22%20width%3D%22200%22%20height%3D%2260%22%20as%3D%22geometry%22%2F%3E%3C%2FmxCell%3E%3C%2Froot%3E%3C%2FmxGraphModel%3E&lt;/span&gt;&lt;span style=&quot;text-align: center;&quot;&gt;&amp;nbsp;&lt;/span&gt;&lt;span style=&quot;&quot;&gt;&lt;font color=&quot;#808080&quot;&gt;vm._events = null&lt;/font&gt;&lt;/span&gt;&lt;/div&gt;&lt;/div&gt;&lt;div style=&quot;background-color: rgb(255, 255, 255); font-family: Menlo, Monaco, &amp;quot;Courier New&amp;quot;, monospace; line-height: 18px;&quot;&gt;&lt;span style=&quot;&quot;&gt;&lt;/span&gt;&lt;/div&gt;" style="rounded=1;whiteSpace=wrap;html=1;" parent="WIyWlLk6GJQsqaUBKTNV-1" vertex="1">
          <mxGeometry x="660" y="275" width="200" height="50" as="geometry" />
        </mxCell>
        <mxCell id="BRy57ZXzOiXBV_z8K8NF-48" value="&lt;div style=&quot;background-color: rgb(255, 255, 255); font-family: Menlo, Monaco, &amp;quot;Courier New&amp;quot;, monospace; line-height: 18px;&quot;&gt;&lt;span style=&quot;&quot;&gt;配置实例vm对应的h函数&lt;/span&gt;&lt;/div&gt;&lt;div style=&quot;background-color: rgb(255, 255, 255); font-family: Menlo, Monaco, &amp;quot;Courier New&amp;quot;, monospace; line-height: 18px;&quot;&gt;&lt;div style=&quot;text-align: left;&quot;&gt;&lt;span style=&quot;background-color: rgb(248, 249, 250); color: rgba(0, 0, 0, 0); font-family: monospace; font-size: 0px;&quot;&gt;%3CmxGraphModel%3E%3Croot%3E%3CmxCell%20id%3D%220%22%2F%3E%3CmxCell%20id%3D%221%22%20parent%3D%220%22%2F%3E%3CmxCell%20id%3D%222%22%20value%3D%22%26lt%3Bdiv%20style%3D%26quot%3Bbackground-color%3A%20rgb(255%2C%20255%2C%20255)%3B%20font-family%3A%20Menlo%2C%20Monaco%2C%20%26amp%3Bquot%3BCourier%20New%26amp%3Bquot%3B%2C%20monospace%3B%20line-height%3A%2018px%3B%26quot%3B%26gt%3B%26lt%3Bspan%20style%3D%26quot%3B%26quot%3B%26gt%3B%E9%87%8D%E7%BD%AE%E5%AE%9E%E4%BE%8B%E7%9A%84%E7%94%9F%E5%91%BD%E5%91%A8%E6%9C%9F%E7%9B%B8%E5%85%B3%E5%B1%9E%E6%80%A7%26lt%3B%2Fspan%26gt%3B%26lt%3B%2Fdiv%26gt%3B%26lt%3Bdiv%20style%3D%26quot%3Btext-align%3A%20left%3B%20background-color%3A%20rgb(255%2C%20255%2C%20255)%3B%20font-family%3A%20Menlo%2C%20Monaco%2C%20%26amp%3Bquot%3BCourier%20New%26amp%3Bquot%3B%2C%20monospace%3B%20line-height%3A%2018px%3B%26quot%3B%26gt%3B%26lt%3Bdiv%26gt%3B%26lt%3Bfont%20color%3D%26quot%3B%23808080%26quot%3B%26gt%3Bvm._watcher%20%3D%26amp%3Bnbsp%3Bnull%26lt%3B%2Ffont%26gt%3B%26lt%3B%2Fdiv%26gt%3B%26lt%3Bdiv%26gt%3B%26lt%3Bfont%20color%3D%26quot%3B%23808080%26quot%3B%26gt%3Bvm._isMounted%20%3D%26amp%3Bnbsp%3Bfalse%26lt%3B%2Ffont%26gt%3B%26lt%3Bspan%20style%3D%26quot%3Btext-align%3A%20center%3B%26quot%3B%26gt%3B%26amp%3Bnbsp%3B%26lt%3B%2Fspan%26gt%3B%26lt%3B%2Fdiv%26gt%3B%26lt%3B%2Fdiv%26gt%3B%26lt%3Bdiv%20style%3D%26quot%3Bbackground-color%3A%20rgb(255%2C%20255%2C%20255)%3B%20font-family%3A%20Menlo%2C%20Monaco%2C%20%26amp%3Bquot%3BCourier%20New%26amp%3Bquot%3B%2C%20monospace%3B%20line-height%3A%2018px%3B%26quot%3B%26gt%3B%26lt%3Bspan%20style%3D%26quot%3B%26quot%3B%26gt%3B%26lt%3B%2Fspan%26gt%3B%26lt%3B%2Fdiv%26gt%3B%22%20style%3D%22rounded%3D1%3BwhiteSpace%3Dwrap%3Bhtml%3D1%3B%22%20vertex%3D%221%22%20parent%3D%221%22%3E%3CmxGeometry%20x%3D%22660%22%20y%3D%22190%22%20width%3D%22200%22%20height%3D%2260%22%20as%3D%22geometry%22%2F%3E%3C%2FmxCell%3E%3C%2Froot%3E%3C%2FmxGraphModel%3E&lt;/span&gt;&lt;span style=&quot;&quot;&gt;&amp;nbsp;&lt;/span&gt;&lt;font color=&quot;#808080&quot;&gt;&lt;span style=&quot;&quot;&gt;  vm._c = (a, b, c, d) &lt;/span&gt;=&amp;gt;&lt;span style=&quot;&quot;&gt; createElement(vm, a, b, c, d, &lt;/span&gt;false&lt;span style=&quot;&quot;&gt;)&lt;/span&gt;&lt;/font&gt;&lt;/div&gt;&lt;div style=&quot;line-height: 18px;&quot;&gt;&lt;div style=&quot;text-align: left;&quot;&gt;&lt;font color=&quot;#808080&quot;&gt;  vm.$createElement = (a, b, c, d) =&amp;gt; createElement(vm, a, b, c, d, true)&lt;/font&gt;&lt;/div&gt;&lt;/div&gt;&lt;/div&gt;&lt;div style=&quot;background-color: rgb(255, 255, 255); font-family: Menlo, Monaco, &amp;quot;Courier New&amp;quot;, monospace; line-height: 18px;&quot;&gt;&lt;span style=&quot;&quot;&gt;&lt;/span&gt;&lt;/div&gt;" style="rounded=1;whiteSpace=wrap;html=1;" parent="WIyWlLk6GJQsqaUBKTNV-1" vertex="1">
          <mxGeometry x="660" y="337.5" width="540" height="85" as="geometry" />
        </mxCell>
        <mxCell id="BRy57ZXzOiXBV_z8K8NF-63" style="edgeStyle=orthogonalEdgeStyle;rounded=0;orthogonalLoop=1;jettySize=auto;html=1;fontColor=#808080;" parent="WIyWlLk6GJQsqaUBKTNV-1" source="BRy57ZXzOiXBV_z8K8NF-49" target="BRy57ZXzOiXBV_z8K8NF-48" edge="1">
          <mxGeometry relative="1" as="geometry" />
        </mxCell>
        <mxCell id="BRy57ZXzOiXBV_z8K8NF-49" value="&lt;div style=&quot;background-color: rgb(255, 255, 255); font-family: Menlo, Monaco, &amp;quot;Courier New&amp;quot;, monospace; line-height: 18px;&quot;&gt;&lt;span style=&quot;&quot;&gt;initRender&lt;/span&gt;(vm)&lt;/div&gt;" style="rounded=1;whiteSpace=wrap;html=1;" parent="WIyWlLk6GJQsqaUBKTNV-1" vertex="1">
          <mxGeometry x="409" y="350" width="150" height="60" as="geometry" />
        </mxCell>
        <mxCell id="BRy57ZXzOiXBV_z8K8NF-50" value="&lt;div style=&quot;background-color: rgb(255, 255, 255); font-family: Menlo, Monaco, &amp;quot;Courier New&amp;quot;, monospace; line-height: 18px;&quot;&gt;&amp;nbsp;初始化injections&lt;/div&gt;&lt;div style=&quot;background-color: rgb(255, 255, 255); font-family: Menlo, Monaco, &amp;quot;Courier New&amp;quot;, monospace; line-height: 18px;&quot;&gt;&lt;font color=&quot;#808080&quot;&gt;获取vm.$options中的injections并直接defineReactive到vm对应的key上&lt;/font&gt;&lt;/div&gt;&lt;div style=&quot;background-color: rgb(255, 255, 255); font-family: Menlo, Monaco, &amp;quot;Courier New&amp;quot;, monospace; line-height: 18px;&quot;&gt;&lt;span style=&quot;&quot;&gt;&lt;/span&gt;&lt;/div&gt;" style="rounded=1;whiteSpace=wrap;html=1;" parent="WIyWlLk6GJQsqaUBKTNV-1" vertex="1">
          <mxGeometry x="660" y="520" width="260" height="60" as="geometry" />
        </mxCell>
        <mxCell id="QtsyUdyrllRx52qRrB19-10" value="" style="edgeStyle=orthogonalEdgeStyle;rounded=0;orthogonalLoop=1;jettySize=auto;html=1;" parent="WIyWlLk6GJQsqaUBKTNV-1" source="BRy57ZXzOiXBV_z8K8NF-51" target="QtsyUdyrllRx52qRrB19-9" edge="1">
          <mxGeometry relative="1" as="geometry" />
        </mxCell>
        <mxCell id="BRy57ZXzOiXBV_z8K8NF-51" value="&lt;div style=&quot;background-color: rgb(255, 255, 255); font-family: Menlo, Monaco, &amp;quot;Courier New&amp;quot;, monospace; line-height: 18px;&quot;&gt;&lt;div style=&quot;line-height: 18px;&quot;&gt;&lt;div style=&quot;line-height: 18px;&quot;&gt;&lt;div style=&quot;line-height: 18px;&quot;&gt;initProps(vm, opts.props)&lt;/div&gt;&lt;/div&gt;&lt;/div&gt;&lt;/div&gt;" style="rounded=1;whiteSpace=wrap;html=1;" parent="WIyWlLk6GJQsqaUBKTNV-1" vertex="1">
          <mxGeometry x="870" y="600" width="237.5" height="50" as="geometry" />
        </mxCell>
        <mxCell id="BRy57ZXzOiXBV_z8K8NF-52" value="&lt;div style=&quot;background-color: rgb(255, 255, 255); font-family: Menlo, Monaco, &amp;quot;Courier New&amp;quot;, monospace; line-height: 18px;&quot;&gt;&lt;div style=&quot;line-height: 18px;&quot;&gt;&lt;div style=&quot;line-height: 18px;&quot;&gt;initMethods(vm, opts.methods)&lt;/div&gt;&lt;/div&gt;&lt;/div&gt;" style="rounded=1;whiteSpace=wrap;html=1;" parent="WIyWlLk6GJQsqaUBKTNV-1" vertex="1">
          <mxGeometry x="870" y="680" width="237.5" height="50" as="geometry" />
        </mxCell>
        <mxCell id="QtsyUdyrllRx52qRrB19-40" style="edgeStyle=orthogonalEdgeStyle;rounded=0;orthogonalLoop=1;jettySize=auto;html=1;entryX=0;entryY=0.5;entryDx=0;entryDy=0;fontColor=#808080;" parent="WIyWlLk6GJQsqaUBKTNV-1" source="BRy57ZXzOiXBV_z8K8NF-53" target="QtsyUdyrllRx52qRrB19-35" edge="1">
          <mxGeometry relative="1" as="geometry" />
        </mxCell>
        <mxCell id="BRy57ZXzOiXBV_z8K8NF-53" value="&lt;div style=&quot;background-color: rgb(255, 255, 255); font-family: Menlo, Monaco, &amp;quot;Courier New&amp;quot;, monospace; line-height: 18px;&quot;&gt;&lt;div style=&quot;line-height: 18px;&quot;&gt;&lt;div style=&quot;line-height: 18px;&quot;&gt;initWatch(vm, opts.watch)&lt;/div&gt;&lt;div style=&quot;line-height: 18px;&quot;&gt;&lt;font color=&quot;#808080&quot;&gt;opts.watch就是用户自定义的watch选项&lt;/font&gt;&lt;/div&gt;&lt;div style=&quot;line-height: 18px;&quot;&gt;&lt;div style=&quot;line-height: 18px;&quot;&gt;&lt;div style=&quot;text-align: left;&quot;&gt;&lt;font color=&quot;#808080&quot;&gt; watch: {&lt;/font&gt;&lt;/div&gt;&lt;div style=&quot;text-align: left;&quot;&gt;&lt;font color=&quot;#808080&quot;&gt;&amp;nbsp; counter: function (newData, oldData) {&lt;/font&gt;&lt;/div&gt;&lt;div style=&quot;text-align: left;&quot;&gt;&lt;font color=&quot;#808080&quot;&gt;&amp;nbsp; &amp;nbsp; console.log(newData, oldData);&lt;/font&gt;&lt;/div&gt;&lt;div style=&quot;text-align: left;&quot;&gt;&lt;font color=&quot;#808080&quot;&gt;&amp;nbsp; },&lt;/font&gt;&lt;/div&gt;&lt;div style=&quot;text-align: left;&quot;&gt;&lt;font color=&quot;#808080&quot;&gt;        }&lt;/font&gt;&lt;/div&gt;&lt;/div&gt;&lt;/div&gt;&lt;/div&gt;&lt;/div&gt;" style="rounded=1;whiteSpace=wrap;html=1;" parent="WIyWlLk6GJQsqaUBKTNV-1" vertex="1">
          <mxGeometry x="767.38" y="1187.5" width="301.25" height="142.5" as="geometry" />
        </mxCell>
        <mxCell id="BRy57ZXzOiXBV_z8K8NF-54" value="&lt;div style=&quot;background-color: rgb(255, 255, 255); font-family: Menlo, Monaco, &amp;quot;Courier New&amp;quot;, monospace; line-height: 18px;&quot;&gt;&lt;div style=&quot;line-height: 18px;&quot;&gt;&lt;div style=&quot;line-height: 18px;&quot;&gt;&lt;div style=&quot;line-height: 18px;&quot;&gt;initComputed(vm, opts.computed)&lt;/div&gt;&lt;/div&gt;&lt;/div&gt;&lt;/div&gt;" style="rounded=1;whiteSpace=wrap;html=1;" parent="WIyWlLk6GJQsqaUBKTNV-1" vertex="1">
          <mxGeometry x="880" y="970" width="237.5" height="50" as="geometry" />
        </mxCell>
        <mxCell id="QtsyUdyrllRx52qRrB19-15" value="" style="edgeStyle=orthogonalEdgeStyle;rounded=0;orthogonalLoop=1;jettySize=auto;html=1;fontColor=#808080;" parent="WIyWlLk6GJQsqaUBKTNV-1" source="BRy57ZXzOiXBV_z8K8NF-65" target="QtsyUdyrllRx52qRrB19-13" edge="1">
          <mxGeometry relative="1" as="geometry" />
        </mxCell>
        <mxCell id="BRy57ZXzOiXBV_z8K8NF-65" value="&lt;div style=&quot;background-color: rgb(255, 255, 255); font-family: Menlo, Monaco, &amp;quot;Courier New&amp;quot;, monospace; line-height: 18px;&quot;&gt;&lt;div style=&quot;line-height: 18px;&quot;&gt;&lt;div style=&quot;line-height: 18px;&quot;&gt;&lt;div style=&quot;line-height: 18px;&quot;&gt;initData(vm)&lt;/div&gt;&lt;/div&gt;&lt;/div&gt;&lt;/div&gt;" style="rounded=1;whiteSpace=wrap;html=1;" parent="WIyWlLk6GJQsqaUBKTNV-1" vertex="1">
          <mxGeometry x="870" y="800" width="237.5" height="50" as="geometry" />
        </mxCell>
        <mxCell id="BRy57ZXzOiXBV_z8K8NF-66" value="" style="endArrow=classic;html=1;rounded=0;fontColor=#808080;entryX=0;entryY=0.5;entryDx=0;entryDy=0;exitX=1;exitY=0.5;exitDx=0;exitDy=0;" parent="WIyWlLk6GJQsqaUBKTNV-1" source="BRy57ZXzOiXBV_z8K8NF-3" target="BRy57ZXzOiXBV_z8K8NF-51" edge="1">
          <mxGeometry width="50" height="50" relative="1" as="geometry">
            <mxPoint x="670" y="775" as="sourcePoint" />
            <mxPoint x="640" y="640" as="targetPoint" />
          </mxGeometry>
        </mxCell>
        <mxCell id="BRy57ZXzOiXBV_z8K8NF-67" value="" style="endArrow=classic;html=1;rounded=0;fontColor=#808080;entryX=-0.033;entryY=0.4;entryDx=0;entryDy=0;entryPerimeter=0;" parent="WIyWlLk6GJQsqaUBKTNV-1" target="BRy57ZXzOiXBV_z8K8NF-34" edge="1">
          <mxGeometry width="50" height="50" relative="1" as="geometry">
            <mxPoint x="200" y="520" as="sourcePoint" />
            <mxPoint x="430" y="440" as="targetPoint" />
          </mxGeometry>
        </mxCell>
        <mxCell id="BRy57ZXzOiXBV_z8K8NF-68" value="" style="endArrow=classic;html=1;rounded=0;fontColor=#808080;entryX=-0.013;entryY=0.633;entryDx=0;entryDy=0;entryPerimeter=0;" parent="WIyWlLk6GJQsqaUBKTNV-1" target="BRy57ZXzOiXBV_z8K8NF-37" edge="1">
          <mxGeometry width="50" height="50" relative="1" as="geometry">
            <mxPoint x="200" y="520" as="sourcePoint" />
            <mxPoint x="430" y="440" as="targetPoint" />
          </mxGeometry>
        </mxCell>
        <mxCell id="BRy57ZXzOiXBV_z8K8NF-69" value="" style="endArrow=classic;html=1;rounded=0;fontColor=#808080;entryX=-0.013;entryY=0.633;entryDx=0;entryDy=0;entryPerimeter=0;" parent="WIyWlLk6GJQsqaUBKTNV-1" target="BRy57ZXzOiXBV_z8K8NF-49" edge="1">
          <mxGeometry width="50" height="50" relative="1" as="geometry">
            <mxPoint x="200" y="520" as="sourcePoint" />
            <mxPoint x="430" y="440" as="targetPoint" />
          </mxGeometry>
        </mxCell>
        <mxCell id="BRy57ZXzOiXBV_z8K8NF-70" value="" style="endArrow=classic;html=1;rounded=0;fontColor=#808080;entryX=0;entryY=0.5;entryDx=0;entryDy=0;" parent="WIyWlLk6GJQsqaUBKTNV-1" target="BRy57ZXzOiXBV_z8K8NF-36" edge="1">
          <mxGeometry width="50" height="50" relative="1" as="geometry">
            <mxPoint x="200" y="520" as="sourcePoint" />
            <mxPoint x="430" y="440" as="targetPoint" />
          </mxGeometry>
        </mxCell>
        <mxCell id="BRy57ZXzOiXBV_z8K8NF-71" value="" style="endArrow=classic;html=1;rounded=0;fontColor=#808080;entryX=0;entryY=0.25;entryDx=0;entryDy=0;exitX=1;exitY=1;exitDx=0;exitDy=0;" parent="WIyWlLk6GJQsqaUBKTNV-1" source="BRy57ZXzOiXBV_z8K8NF-2" target="BRy57ZXzOiXBV_z8K8NF-3" edge="1">
          <mxGeometry width="50" height="50" relative="1" as="geometry">
            <mxPoint x="380" y="490" as="sourcePoint" />
            <mxPoint x="430" y="440" as="targetPoint" />
          </mxGeometry>
        </mxCell>
        <mxCell id="BRy57ZXzOiXBV_z8K8NF-72" value="" style="endArrow=classic;html=1;rounded=0;fontColor=#808080;exitX=1;exitY=1;exitDx=0;exitDy=0;entryX=0;entryY=0.25;entryDx=0;entryDy=0;" parent="WIyWlLk6GJQsqaUBKTNV-1" source="BRy57ZXzOiXBV_z8K8NF-2" target="BRy57ZXzOiXBV_z8K8NF-39" edge="1">
          <mxGeometry width="50" height="50" relative="1" as="geometry">
            <mxPoint x="380" y="600" as="sourcePoint" />
            <mxPoint x="430" y="550" as="targetPoint" />
          </mxGeometry>
        </mxCell>
        <mxCell id="BRy57ZXzOiXBV_z8K8NF-74" value="" style="endArrow=classic;html=1;rounded=0;fontColor=#808080;exitX=1;exitY=1;exitDx=0;exitDy=0;entryX=0;entryY=0.5;entryDx=0;entryDy=0;" parent="WIyWlLk6GJQsqaUBKTNV-1" source="BRy57ZXzOiXBV_z8K8NF-2" target="BRy57ZXzOiXBV_z8K8NF-43" edge="1">
          <mxGeometry width="50" height="50" relative="1" as="geometry">
            <mxPoint x="380" y="810" as="sourcePoint" />
            <mxPoint x="410" y="970" as="targetPoint" />
          </mxGeometry>
        </mxCell>
        <mxCell id="BRy57ZXzOiXBV_z8K8NF-75" value="&lt;div style=&quot;background-color: rgb(255, 255, 255); font-family: Menlo, Monaco, &amp;quot;Courier New&amp;quot;, monospace; line-height: 18px;&quot;&gt;&lt;div style=&quot;line-height: 18px;&quot;&gt;&lt;div style=&quot;line-height: 18px;&quot;&gt;&lt;div style=&quot;line-height: 18px;&quot;&gt;&lt;div style=&quot;line-height: 18px;&quot;&gt; initProvide(vm)&lt;/div&gt;&lt;/div&gt;&lt;/div&gt;&lt;/div&gt;&lt;/div&gt;" style="rounded=1;whiteSpace=wrap;html=1;" parent="WIyWlLk6GJQsqaUBKTNV-1" vertex="1">
          <mxGeometry x="402.5" y="780" width="145" height="60" as="geometry" />
        </mxCell>
        <mxCell id="BRy57ZXzOiXBV_z8K8NF-76" value="" style="endArrow=classic;html=1;rounded=0;fontColor=#808080;entryX=0;entryY=0.5;entryDx=0;entryDy=0;" parent="WIyWlLk6GJQsqaUBKTNV-1" target="BRy57ZXzOiXBV_z8K8NF-75" edge="1">
          <mxGeometry width="50" height="50" relative="1" as="geometry">
            <mxPoint x="210" y="580" as="sourcePoint" />
            <mxPoint x="430" y="700" as="targetPoint" />
          </mxGeometry>
        </mxCell>
        <mxCell id="QtsyUdyrllRx52qRrB19-0" value="" style="endArrow=classic;html=1;rounded=0;entryX=0;entryY=0.5;entryDx=0;entryDy=0;exitX=1;exitY=0.5;exitDx=0;exitDy=0;" parent="WIyWlLk6GJQsqaUBKTNV-1" source="BRy57ZXzOiXBV_z8K8NF-3" target="BRy57ZXzOiXBV_z8K8NF-52" edge="1">
          <mxGeometry width="50" height="50" relative="1" as="geometry">
            <mxPoint x="450" y="850" as="sourcePoint" />
            <mxPoint x="500" y="800" as="targetPoint" />
          </mxGeometry>
        </mxCell>
        <mxCell id="QtsyUdyrllRx52qRrB19-1" value="" style="endArrow=classic;html=1;rounded=0;exitX=1;exitY=0.5;exitDx=0;exitDy=0;entryX=0;entryY=0.5;entryDx=0;entryDy=0;" parent="WIyWlLk6GJQsqaUBKTNV-1" source="BRy57ZXzOiXBV_z8K8NF-3" target="BRy57ZXzOiXBV_z8K8NF-65" edge="1">
          <mxGeometry width="50" height="50" relative="1" as="geometry">
            <mxPoint x="450" y="740" as="sourcePoint" />
            <mxPoint x="500" y="690" as="targetPoint" />
          </mxGeometry>
        </mxCell>
        <mxCell id="QtsyUdyrllRx52qRrB19-2" value="" style="endArrow=classic;html=1;rounded=0;entryX=0;entryY=0.5;entryDx=0;entryDy=0;exitX=1;exitY=0.5;exitDx=0;exitDy=0;" parent="WIyWlLk6GJQsqaUBKTNV-1" source="BRy57ZXzOiXBV_z8K8NF-3" target="BRy57ZXzOiXBV_z8K8NF-54" edge="1">
          <mxGeometry width="50" height="50" relative="1" as="geometry">
            <mxPoint x="450" y="740" as="sourcePoint" />
            <mxPoint x="500" y="690" as="targetPoint" />
          </mxGeometry>
        </mxCell>
        <mxCell id="QtsyUdyrllRx52qRrB19-3" value="" style="endArrow=classic;html=1;rounded=0;entryX=0;entryY=0.5;entryDx=0;entryDy=0;exitX=1;exitY=0.5;exitDx=0;exitDy=0;" parent="WIyWlLk6GJQsqaUBKTNV-1" source="BRy57ZXzOiXBV_z8K8NF-3" target="BRy57ZXzOiXBV_z8K8NF-53" edge="1">
          <mxGeometry width="50" height="50" relative="1" as="geometry">
            <mxPoint x="450" y="740" as="sourcePoint" />
            <mxPoint x="500" y="690" as="targetPoint" />
          </mxGeometry>
        </mxCell>
        <mxCell id="QtsyUdyrllRx52qRrB19-4" value="" style="endArrow=classic;html=1;rounded=0;exitX=1;exitY=0;exitDx=0;exitDy=0;entryX=0;entryY=0.5;entryDx=0;entryDy=0;" parent="WIyWlLk6GJQsqaUBKTNV-1" source="BRy57ZXzOiXBV_z8K8NF-10" target="BRy57ZXzOiXBV_z8K8NF-13" edge="1">
          <mxGeometry width="50" height="50" relative="1" as="geometry">
            <mxPoint x="450" y="-120" as="sourcePoint" />
            <mxPoint x="500" y="-170" as="targetPoint" />
          </mxGeometry>
        </mxCell>
        <mxCell id="QtsyUdyrllRx52qRrB19-5" value="" style="endArrow=classic;html=1;rounded=0;entryX=0;entryY=0.5;entryDx=0;entryDy=0;exitX=1;exitY=0;exitDx=0;exitDy=0;" parent="WIyWlLk6GJQsqaUBKTNV-1" source="BRy57ZXzOiXBV_z8K8NF-10" target="BRy57ZXzOiXBV_z8K8NF-14" edge="1">
          <mxGeometry width="50" height="50" relative="1" as="geometry">
            <mxPoint x="450" y="-120" as="sourcePoint" />
            <mxPoint x="500" y="-170" as="targetPoint" />
          </mxGeometry>
        </mxCell>
        <mxCell id="QtsyUdyrllRx52qRrB19-6" value="" style="endArrow=classic;html=1;rounded=0;exitX=1;exitY=1;exitDx=0;exitDy=0;entryX=0;entryY=0.5;entryDx=0;entryDy=0;" parent="WIyWlLk6GJQsqaUBKTNV-1" source="BRy57ZXzOiXBV_z8K8NF-10" target="BRy57ZXzOiXBV_z8K8NF-16" edge="1">
          <mxGeometry width="50" height="50" relative="1" as="geometry">
            <mxPoint x="450" y="-120" as="sourcePoint" />
            <mxPoint x="500" y="-170" as="targetPoint" />
          </mxGeometry>
        </mxCell>
        <mxCell id="QtsyUdyrllRx52qRrB19-7" value="" style="endArrow=classic;html=1;rounded=0;exitX=1;exitY=1;exitDx=0;exitDy=0;entryX=0;entryY=0.5;entryDx=0;entryDy=0;" parent="WIyWlLk6GJQsqaUBKTNV-1" source="BRy57ZXzOiXBV_z8K8NF-10" target="BRy57ZXzOiXBV_z8K8NF-17" edge="1">
          <mxGeometry width="50" height="50" relative="1" as="geometry">
            <mxPoint x="450" y="-120" as="sourcePoint" />
            <mxPoint x="500" y="-170" as="targetPoint" />
          </mxGeometry>
        </mxCell>
        <mxCell id="QtsyUdyrllRx52qRrB19-9" value="&lt;div style=&quot;background-color: rgb(255, 255, 255); font-family: Menlo, Monaco, &amp;quot;Courier New&amp;quot;, monospace; line-height: 18px;&quot;&gt;&lt;div style=&quot;line-height: 18px;&quot;&gt;&lt;div style=&quot;line-height: 18px;&quot;&gt;&lt;div style=&quot;line-height: 18px;&quot;&gt;将传进来的props变成响应式并挂到vm._props下&lt;/div&gt;&lt;/div&gt;&lt;/div&gt;&lt;/div&gt;" style="rounded=1;whiteSpace=wrap;html=1;" parent="WIyWlLk6GJQsqaUBKTNV-1" vertex="1">
          <mxGeometry x="1180" y="600" width="237.5" height="50" as="geometry" />
        </mxCell>
        <mxCell id="QtsyUdyrllRx52qRrB19-11" value="&lt;div style=&quot;background-color: rgb(255, 255, 255); font-family: Menlo, Monaco, &amp;quot;Courier New&amp;quot;, monospace; line-height: 18px;&quot;&gt;&lt;div style=&quot;line-height: 18px;&quot;&gt;&lt;div style=&quot;line-height: 18px;&quot;&gt;&lt;div style=&quot;line-height: 18px;&quot;&gt;将我们写的methods挂到vm上面，并且将各个method的this绑定为该vm实例对象&lt;/div&gt;&lt;div style=&quot;line-height: 18px;&quot;&gt;&lt;div style=&quot;line-height: 18px;&quot;&gt;&lt;div&gt;&lt;font color=&quot;#808080&quot;&gt;vm[key] =&amp;nbsp;&lt;/font&gt;&lt;span style=&quot;color: rgb(128, 128, 128);&quot;&gt;bind(methods[key], vm);&lt;/span&gt;&lt;/div&gt;&lt;/div&gt;&lt;/div&gt;&lt;/div&gt;&lt;/div&gt;&lt;/div&gt;" style="rounded=1;whiteSpace=wrap;html=1;" parent="WIyWlLk6GJQsqaUBKTNV-1" vertex="1">
          <mxGeometry x="1180" y="670" width="250" height="70" as="geometry" />
        </mxCell>
        <mxCell id="QtsyUdyrllRx52qRrB19-16" value="" style="edgeStyle=orthogonalEdgeStyle;rounded=0;orthogonalLoop=1;jettySize=auto;html=1;fontColor=#808080;" parent="WIyWlLk6GJQsqaUBKTNV-1" source="QtsyUdyrllRx52qRrB19-13" target="QtsyUdyrllRx52qRrB19-14" edge="1">
          <mxGeometry relative="1" as="geometry" />
        </mxCell>
        <mxCell id="QtsyUdyrllRx52qRrB19-13" value="&lt;div style=&quot;background-color: rgb(255, 255, 255); font-family: Menlo, Monaco, &amp;quot;Courier New&amp;quot;, monospace; line-height: 18px;&quot;&gt;&lt;div style=&quot;line-height: 18px;&quot;&gt;&lt;div style=&quot;line-height: 18px;&quot;&gt;&lt;div style=&quot;line-height: 18px;&quot;&gt;observe(data)&lt;/div&gt;&lt;/div&gt;&lt;/div&gt;&lt;/div&gt;" style="rounded=1;whiteSpace=wrap;html=1;" parent="WIyWlLk6GJQsqaUBKTNV-1" vertex="1">
          <mxGeometry x="1180" y="800" width="120" height="50" as="geometry" />
        </mxCell>
        <mxCell id="QtsyUdyrllRx52qRrB19-19" value="" style="edgeStyle=orthogonalEdgeStyle;rounded=0;orthogonalLoop=1;jettySize=auto;html=1;fontColor=#000000;" parent="WIyWlLk6GJQsqaUBKTNV-1" source="QtsyUdyrllRx52qRrB19-14" target="QtsyUdyrllRx52qRrB19-17" edge="1">
          <mxGeometry relative="1" as="geometry" />
        </mxCell>
        <mxCell id="QtsyUdyrllRx52qRrB19-14" value="&lt;div style=&quot;background-color: rgb(255, 255, 255); font-family: Menlo, Monaco, &amp;quot;Courier New&amp;quot;, monospace; line-height: 18px;&quot;&gt;&lt;div style=&quot;line-height: 18px;&quot;&gt;&lt;div style=&quot;line-height: 18px;&quot;&gt;&lt;div style=&quot;line-height: 18px;&quot;&gt;&lt;div style=&quot;line-height: 18px;&quot;&gt;&lt;span style=&quot;color: #0000ff;&quot;&gt;new&lt;/span&gt; Observer(data)&lt;/div&gt;&lt;/div&gt;&lt;/div&gt;&lt;/div&gt;&lt;/div&gt;" style="rounded=1;whiteSpace=wrap;html=1;" parent="WIyWlLk6GJQsqaUBKTNV-1" vertex="1">
          <mxGeometry x="1360" y="800" width="150" height="50" as="geometry" />
        </mxCell>
        <mxCell id="QtsyUdyrllRx52qRrB19-20" value="" style="edgeStyle=orthogonalEdgeStyle;rounded=0;orthogonalLoop=1;jettySize=auto;html=1;fontColor=#000000;" parent="WIyWlLk6GJQsqaUBKTNV-1" source="QtsyUdyrllRx52qRrB19-17" target="QtsyUdyrllRx52qRrB19-18" edge="1">
          <mxGeometry relative="1" as="geometry" />
        </mxCell>
        <mxCell id="QtsyUdyrllRx52qRrB19-17" value="&lt;div style=&quot;background-color: rgb(255, 255, 255); font-family: Menlo, Monaco, &amp;quot;Courier New&amp;quot;, monospace; line-height: 18px;&quot;&gt;&lt;div style=&quot;line-height: 18px;&quot;&gt;&lt;div style=&quot;line-height: 18px;&quot;&gt;&lt;div style=&quot;line-height: 18px;&quot;&gt;&lt;div style=&quot;line-height: 18px;&quot;&gt;walk(data)&lt;/div&gt;&lt;/div&gt;&lt;/div&gt;&lt;/div&gt;&lt;/div&gt;" style="rounded=1;whiteSpace=wrap;html=1;" parent="WIyWlLk6GJQsqaUBKTNV-1" vertex="1">
          <mxGeometry x="1550" y="800" width="150" height="50" as="geometry" />
        </mxCell>
        <mxCell id="QtsyUdyrllRx52qRrB19-18" value="&lt;div style=&quot;background-color: rgb(255, 255, 255); font-family: Menlo, Monaco, &amp;quot;Courier New&amp;quot;, monospace; line-height: 18px;&quot;&gt;&lt;div style=&quot;line-height: 18px;&quot;&gt;&lt;div style=&quot;line-height: 18px;&quot;&gt;&lt;div style=&quot;line-height: 18px;&quot;&gt;&lt;div style=&quot;line-height: 18px;&quot;&gt;遍历data将所有属性变成响应式，即通过setter和getter进行数据劫持&lt;/div&gt;&lt;div style=&quot;line-height: 18px;&quot;&gt;&lt;div style=&quot;line-height: 18px;&quot;&gt;&lt;font color=&quot;#808080&quot;&gt;defineReactive(data, keys[i]);&lt;/font&gt;&lt;/div&gt;&lt;/div&gt;&lt;/div&gt;&lt;/div&gt;&lt;/div&gt;&lt;/div&gt;" style="rounded=1;whiteSpace=wrap;html=1;" parent="WIyWlLk6GJQsqaUBKTNV-1" vertex="1">
          <mxGeometry x="1750" y="790" width="230" height="70" as="geometry" />
        </mxCell>
        <mxCell id="QtsyUdyrllRx52qRrB19-21" value="" style="endArrow=classic;html=1;rounded=0;fontColor=#000000;exitX=0.5;exitY=0;exitDx=0;exitDy=0;entryX=0.408;entryY=-0.02;entryDx=0;entryDy=0;entryPerimeter=0;" parent="WIyWlLk6GJQsqaUBKTNV-1" source="QtsyUdyrllRx52qRrB19-18" target="QtsyUdyrllRx52qRrB19-13" edge="1">
          <mxGeometry width="50" height="50" relative="1" as="geometry">
            <mxPoint x="1430" y="860" as="sourcePoint" />
            <mxPoint x="1190" y="760" as="targetPoint" />
            <Array as="points">
              <mxPoint x="1865" y="760" />
              <mxPoint x="1230" y="760" />
            </Array>
          </mxGeometry>
        </mxCell>
        <mxCell id="QtsyUdyrllRx52qRrB19-25" value="如果子属性是对象，递归调用observe方法将子属性变成响应式" style="edgeLabel;html=1;align=center;verticalAlign=middle;resizable=0;points=[];fontColor=#000000;" parent="QtsyUdyrllRx52qRrB19-21" vertex="1" connectable="0">
          <mxGeometry x="0.0672" y="2" relative="1" as="geometry">
            <mxPoint as="offset" />
          </mxGeometry>
        </mxCell>
        <mxCell id="QtsyUdyrllRx52qRrB19-26" value="&lt;div style=&quot;background-color: rgb(255, 255, 255); font-family: Menlo, Monaco, &amp;quot;Courier New&amp;quot;, monospace; line-height: 18px;&quot;&gt;&lt;div style=&quot;line-height: 18px;&quot;&gt;&lt;div style=&quot;line-height: 18px;&quot;&gt;&lt;div style=&quot;line-height: 18px;&quot;&gt;&lt;div style=&quot;text-align: center; line-height: 18px;&quot;&gt;setter触发依赖&lt;/div&gt;&lt;div style=&quot;line-height: 18px;&quot;&gt;&lt;font color=&quot;#808080&quot;&gt;&amp;nbsp;set(newValue) {&lt;/font&gt;&lt;/div&gt;&lt;div style=&quot;line-height: 18px;&quot;&gt;&lt;font color=&quot;#808080&quot;&gt;&amp;nbsp; &amp;nbsp;value = newVlaue;&lt;/font&gt;&lt;/div&gt;&lt;div style=&quot;line-height: 18px;&quot;&gt;&lt;font color=&quot;#808080&quot;&gt;&amp;nbsp; &amp;nbsp;dep.notify()&lt;/font&gt;&lt;/div&gt;&lt;div style=&quot;line-height: 18px;&quot;&gt;&lt;font color=&quot;#808080&quot;&gt;&amp;nbsp;}&lt;/font&gt;&lt;/div&gt;&lt;/div&gt;&lt;/div&gt;&lt;/div&gt;&lt;/div&gt;" style="rounded=1;whiteSpace=wrap;html=1;align=left;" parent="WIyWlLk6GJQsqaUBKTNV-1" vertex="1">
          <mxGeometry x="2079" y="830" width="161" height="100" as="geometry" />
        </mxCell>
        <mxCell id="QtsyUdyrllRx52qRrB19-27" value="&lt;div style=&quot;background-color: rgb(255, 255, 255); font-family: Menlo, Monaco, &amp;quot;Courier New&amp;quot;, monospace; line-height: 18px;&quot;&gt;&lt;div style=&quot;line-height: 18px;&quot;&gt;&lt;div style=&quot;line-height: 18px;&quot;&gt;&lt;div style=&quot;line-height: 18px;&quot;&gt;&lt;div style=&quot;text-align: center; line-height: 18px;&quot;&gt;&amp;nbsp; &amp;nbsp;getter收集依赖&lt;/div&gt;&lt;div style=&quot;line-height: 18px;&quot;&gt;&lt;font color=&quot;#808080&quot;&gt;&amp;nbsp;get() {&lt;/font&gt;&lt;/div&gt;&lt;div style=&quot;line-height: 18px;&quot;&gt;&lt;font color=&quot;#808080&quot;&gt;&amp;nbsp; &amp;nbsp;dep.depend()&lt;br&gt;&lt;/font&gt;&lt;/div&gt;&lt;div style=&quot;line-height: 18px;&quot;&gt;&lt;font color=&quot;#808080&quot;&gt;&amp;nbsp; &amp;nbsp;return value&lt;/font&gt;&lt;/div&gt;&lt;div style=&quot;text-align: justify; line-height: 18px;&quot;&gt;&lt;font color=&quot;#808080&quot;&gt;&amp;nbsp;}&lt;/font&gt;&lt;/div&gt;&lt;/div&gt;&lt;/div&gt;&lt;/div&gt;&lt;/div&gt;" style="rounded=1;whiteSpace=wrap;html=1;align=left;" parent="WIyWlLk6GJQsqaUBKTNV-1" vertex="1">
          <mxGeometry x="2078" y="710" width="162" height="100" as="geometry" />
        </mxCell>
        <mxCell id="QtsyUdyrllRx52qRrB19-28" value="" style="endArrow=none;dashed=1;html=1;dashPattern=1 3;strokeWidth=2;rounded=0;fontColor=#808080;entryX=0;entryY=0.5;entryDx=0;entryDy=0;exitX=1;exitY=0.25;exitDx=0;exitDy=0;" parent="WIyWlLk6GJQsqaUBKTNV-1" source="QtsyUdyrllRx52qRrB19-18" target="QtsyUdyrllRx52qRrB19-27" edge="1">
          <mxGeometry width="50" height="50" relative="1" as="geometry">
            <mxPoint x="1640" y="810" as="sourcePoint" />
            <mxPoint x="1690" y="760" as="targetPoint" />
          </mxGeometry>
        </mxCell>
        <mxCell id="QtsyUdyrllRx52qRrB19-29" value="" style="endArrow=none;dashed=1;html=1;rounded=0;fontColor=#808080;entryX=0;entryY=0.5;entryDx=0;entryDy=0;exitX=1;exitY=0.75;exitDx=0;exitDy=0;" parent="WIyWlLk6GJQsqaUBKTNV-1" source="QtsyUdyrllRx52qRrB19-18" target="QtsyUdyrllRx52qRrB19-26" edge="1">
          <mxGeometry width="50" height="50" relative="1" as="geometry">
            <mxPoint x="1640" y="810" as="sourcePoint" />
            <mxPoint x="1690" y="760" as="targetPoint" />
          </mxGeometry>
        </mxCell>
        <mxCell id="QtsyUdyrllRx52qRrB19-30" value="&lt;div style=&quot;background-color: rgb(255, 255, 255); font-family: Menlo, Monaco, &amp;quot;Courier New&amp;quot;, monospace; line-height: 18px;&quot;&gt;&lt;div style=&quot;line-height: 18px;&quot;&gt;&lt;div style=&quot;line-height: 18px;&quot;&gt;&lt;div style=&quot;line-height: 18px;&quot;&gt;&lt;div style=&quot;line-height: 18px;&quot;&gt;以用户自定义的computed函数作为getter创建computedWatcher。但因为提供了选项{lazy: true}，所以watcher构造时默认不会自动调用getter来立刻更新计算属性并触发依赖收集，而是先将watccher的dirty属性设置成true，这样等到如页面{{计算属性}}使用时再触发下面的computedGetter来进行求值&lt;/div&gt;&lt;div style=&quot;line-height: 18px;&quot;&gt;&lt;span style=&quot;color: rgb(128, 128, 128);&quot;&gt;&amp;nbsp;vm._computedWatchers =&amp;nbsp;&lt;/span&gt;&lt;font color=&quot;#808080&quot;&gt;new &lt;/font&gt;&lt;b style=&quot;&quot;&gt;Watcher&lt;/b&gt;&lt;font color=&quot;#808080&quot;&gt;(vm, opts.computed[key], noop, {lazy: true});&lt;/font&gt;&lt;/div&gt;&lt;/div&gt;&lt;/div&gt;&lt;/div&gt;&lt;/div&gt;" style="rounded=1;whiteSpace=wrap;html=1;align=center;" parent="WIyWlLk6GJQsqaUBKTNV-1" vertex="1">
          <mxGeometry x="1180" y="890" width="670" height="90" as="geometry" />
        </mxCell>
        <mxCell id="QtsyUdyrllRx52qRrB19-31" value="&lt;div style=&quot;background-color: rgb(255, 255, 255); font-family: Menlo, Monaco, &amp;quot;Courier New&amp;quot;, monospace; line-height: 18px;&quot;&gt;&lt;div style=&quot;line-height: 18px;&quot;&gt;&lt;div style=&quot;line-height: 18px;&quot;&gt;&lt;div style=&quot;line-height: 18px;&quot;&gt;&lt;div style=&quot;line-height: 18px;&quot;&gt;将用户自定义计算属性挂到vm上面，并将其getter定义为computedGetter。这样一来，在页面渲染watcher触发render时，将解析读取{{计算属性}}从而触发该computedGetter来获取计算属性的值或者重新计算该计算属性的值。&lt;/div&gt;&lt;div style=&quot;line-height: 18px;&quot;&gt;&lt;font color=&quot;#808080&quot;&gt;defineComputed(vm, key,&amp;nbsp;&lt;/font&gt;&lt;span style=&quot;color: rgb(128, 128, 128);&quot;&gt;opts.computed[key]&lt;/span&gt;&lt;font color=&quot;#808080&quot;&gt;);&lt;/font&gt;&lt;/div&gt;&lt;/div&gt;&lt;/div&gt;&lt;/div&gt;&lt;/div&gt;" style="rounded=1;whiteSpace=wrap;html=1;align=center;" parent="WIyWlLk6GJQsqaUBKTNV-1" vertex="1">
          <mxGeometry x="1180" y="1009" width="670" height="81" as="geometry" />
        </mxCell>
        <mxCell id="QtsyUdyrllRx52qRrB19-33" value="" style="endArrow=classic;html=1;rounded=0;fontColor=#808080;entryX=-0.003;entryY=0.389;entryDx=0;entryDy=0;entryPerimeter=0;exitX=1;exitY=0.25;exitDx=0;exitDy=0;" parent="WIyWlLk6GJQsqaUBKTNV-1" source="BRy57ZXzOiXBV_z8K8NF-54" target="QtsyUdyrllRx52qRrB19-30" edge="1">
          <mxGeometry width="50" height="50" relative="1" as="geometry">
            <mxPoint x="1230" y="1010" as="sourcePoint" />
            <mxPoint x="1280" y="960" as="targetPoint" />
          </mxGeometry>
        </mxCell>
        <mxCell id="QtsyUdyrllRx52qRrB19-34" value="" style="endArrow=classic;html=1;rounded=0;fontColor=#808080;exitX=1;exitY=0.5;exitDx=0;exitDy=0;entryX=0;entryY=0.5;entryDx=0;entryDy=0;" parent="WIyWlLk6GJQsqaUBKTNV-1" source="BRy57ZXzOiXBV_z8K8NF-54" target="QtsyUdyrllRx52qRrB19-31" edge="1">
          <mxGeometry width="50" height="50" relative="1" as="geometry">
            <mxPoint x="1230" y="1010" as="sourcePoint" />
            <mxPoint x="1280" y="960" as="targetPoint" />
          </mxGeometry>
        </mxCell>
        <mxCell id="QtsyUdyrllRx52qRrB19-37" value="" style="edgeStyle=orthogonalEdgeStyle;rounded=0;orthogonalLoop=1;jettySize=auto;html=1;fontColor=#808080;" parent="WIyWlLk6GJQsqaUBKTNV-1" source="QtsyUdyrllRx52qRrB19-35" target="QtsyUdyrllRx52qRrB19-36" edge="1">
          <mxGeometry relative="1" as="geometry" />
        </mxCell>
        <mxCell id="QtsyUdyrllRx52qRrB19-35" value="&lt;div style=&quot;background-color: rgb(255, 255, 255); font-family: Menlo, Monaco, &amp;quot;Courier New&amp;quot;, monospace; line-height: 18px;&quot;&gt;&lt;div style=&quot;line-height: 18px;&quot;&gt;&lt;div style=&quot;line-height: 18px;&quot;&gt;&lt;div style=&quot;line-height: 18px;&quot;&gt;createWatcher(vm, key, opts.watch[key])&lt;/div&gt;&lt;/div&gt;&lt;/div&gt;&lt;/div&gt;" style="rounded=1;whiteSpace=wrap;html=1;" parent="WIyWlLk6GJQsqaUBKTNV-1" vertex="1">
          <mxGeometry x="1168" y="1228.75" width="300" height="60" as="geometry" />
        </mxCell>
        <mxCell id="QtsyUdyrllRx52qRrB19-39" value="" style="edgeStyle=orthogonalEdgeStyle;rounded=0;orthogonalLoop=1;jettySize=auto;html=1;fontColor=#808080;entryX=0;entryY=0.5;entryDx=0;entryDy=0;" parent="WIyWlLk6GJQsqaUBKTNV-1" source="QtsyUdyrllRx52qRrB19-36" target="QtsyUdyrllRx52qRrB19-38" edge="1">
          <mxGeometry relative="1" as="geometry">
            <mxPoint x="1808" y="1258.75" as="targetPoint" />
          </mxGeometry>
        </mxCell>
        <mxCell id="QtsyUdyrllRx52qRrB19-36" value="&lt;div style=&quot;background-color: rgb(255, 255, 255); font-family: Menlo, Monaco, &amp;quot;Courier New&amp;quot;, monospace; line-height: 18px;&quot;&gt;&lt;div style=&quot;line-height: 18px;&quot;&gt;&lt;div style=&quot;line-height: 18px;&quot;&gt;&lt;div style=&quot;line-height: 18px;&quot;&gt;vm.$watch(key, opts.watch[key])&lt;/div&gt;&lt;/div&gt;&lt;/div&gt;&lt;/div&gt;" style="rounded=1;whiteSpace=wrap;html=1;" parent="WIyWlLk6GJQsqaUBKTNV-1" vertex="1">
          <mxGeometry x="1498" y="1233.75" width="250" height="50" as="geometry" />
        </mxCell>
        <mxCell id="QtsyUdyrllRx52qRrB19-38" value="&lt;div style=&quot;background-color: rgb(255, 255, 255); font-family: Menlo, Monaco, &amp;quot;Courier New&amp;quot;, monospace; line-height: 18px;&quot;&gt;&lt;div style=&quot;line-height: 18px;&quot;&gt;&lt;div style=&quot;line-height: 18px;&quot;&gt;&lt;div style=&quot;line-height: 18px;&quot;&gt;new &lt;b&gt;Watcher&lt;/b&gt;(vm, key, opts.watch[key])&lt;/div&gt;&lt;div style=&quot;line-height: 18px;&quot;&gt;&lt;font color=&quot;#808080&quot;&gt;以用户监控属性回调函数作为cb创建watcher，构造函数运行时会访问vm的key属性以收集依赖，一旦依赖数据发生变化，则会调用相应自定义回调函数&lt;/font&gt;&lt;/div&gt;&lt;/div&gt;&lt;/div&gt;&lt;/div&gt;" style="rounded=1;whiteSpace=wrap;html=1;" parent="WIyWlLk6GJQsqaUBKTNV-1" vertex="1">
          <mxGeometry x="1798" y="1213.75" width="280" height="90" as="geometry" />
        </mxCell>
        <mxCell id="IAiVBDc0J_cq1cuzVByV-1" value="组件实例对象vm" style="swimlane;fontStyle=0;childLayout=stackLayout;horizontal=1;startSize=30;horizontalStack=0;resizeParent=1;resizeParentMax=0;resizeLast=0;collapsible=1;marginBottom=0;" parent="WIyWlLk6GJQsqaUBKTNV-1" vertex="1">
          <mxGeometry x="3110" y="1015" width="304" height="90" as="geometry" />
        </mxCell>
        <mxCell id="IAiVBDc0J_cq1cuzVByV-2" value="依赖数据: {getter, setter}" style="text;strokeColor=none;fillColor=none;align=left;verticalAlign=middle;spacingLeft=4;spacingRight=4;overflow=hidden;points=[[0,0.5],[1,0.5]];portConstraint=eastwest;rotatable=0;" parent="IAiVBDc0J_cq1cuzVByV-1" vertex="1">
          <mxGeometry y="30" width="304" height="30" as="geometry" />
        </mxCell>
        <mxCell id="IAiVBDc0J_cq1cuzVByV-3" value="计算属性：computedGetter(function)" style="text;strokeColor=none;fillColor=none;align=left;verticalAlign=middle;spacingLeft=4;spacingRight=4;overflow=hidden;points=[[0,0.5],[1,0.5]];portConstraint=eastwest;rotatable=0;" parent="IAiVBDc0J_cq1cuzVByV-1" vertex="1">
          <mxGeometry y="60" width="304" height="30" as="geometry" />
        </mxCell>
        <mxCell id="IAiVBDc0J_cq1cuzVByV-9" value="依赖数据的dep(Dep)" style="swimlane;" parent="WIyWlLk6GJQsqaUBKTNV-1" vertex="1">
          <mxGeometry x="3669" y="665" width="240" height="330" as="geometry" />
        </mxCell>
        <mxCell id="IAiVBDc0J_cq1cuzVByV-11" value="subs" style="swimlane;horizontal=0;" parent="IAiVBDc0J_cq1cuzVByV-9" vertex="1">
          <mxGeometry x="40" y="170" width="180" height="150" as="geometry" />
        </mxCell>
        <mxCell id="I4gWAZDMXV9Th8KUNQO9-33" value="" style="edgeStyle=orthogonalEdgeStyle;rounded=0;orthogonalLoop=1;jettySize=auto;html=1;" edge="1" parent="IAiVBDc0J_cq1cuzVByV-11" source="IAiVBDc0J_cq1cuzVByV-10" target="IAiVBDc0J_cq1cuzVByV-12">
          <mxGeometry relative="1" as="geometry" />
        </mxCell>
        <mxCell id="IAiVBDc0J_cq1cuzVByV-10" value="计算属性watcher" style="rounded=1;whiteSpace=wrap;html=1;" parent="IAiVBDc0J_cq1cuzVByV-11" vertex="1">
          <mxGeometry x="30" y="5" width="120" height="65" as="geometry" />
        </mxCell>
        <mxCell id="IAiVBDc0J_cq1cuzVByV-12" value="渲染watcher" style="rounded=1;whiteSpace=wrap;html=1;" parent="IAiVBDc0J_cq1cuzVByV-11" vertex="1">
          <mxGeometry x="30" y="83" width="120" height="60" as="geometry" />
        </mxCell>
        <mxCell id="IAiVBDc0J_cq1cuzVByV-49" value="" style="edgeStyle=orthogonalEdgeStyle;rounded=0;orthogonalLoop=1;jettySize=auto;html=1;" parent="IAiVBDc0J_cq1cuzVByV-9" source="IAiVBDc0J_cq1cuzVByV-48" target="IAiVBDc0J_cq1cuzVByV-10" edge="1">
          <mxGeometry relative="1" as="geometry" />
        </mxCell>
        <mxCell id="IAiVBDc0J_cq1cuzVByV-50" value="遍历通知订阅的watchers" style="edgeLabel;html=1;align=center;verticalAlign=middle;resizable=0;points=[];" parent="IAiVBDc0J_cq1cuzVByV-49" vertex="1" connectable="0">
          <mxGeometry x="-0.3067" relative="1" as="geometry">
            <mxPoint as="offset" />
          </mxGeometry>
        </mxCell>
        <mxCell id="IAiVBDc0J_cq1cuzVByV-48" value="notify方法" style="rounded=1;whiteSpace=wrap;html=1;" parent="IAiVBDc0J_cq1cuzVByV-9" vertex="1">
          <mxGeometry x="70" y="40" width="120" height="60" as="geometry" />
        </mxCell>
        <mxCell id="I4gWAZDMXV9Th8KUNQO9-2" value="3" style="ellipse;whiteSpace=wrap;html=1;aspect=fixed;fillColor=#d5e8d4;strokeColor=#82b366;" vertex="1" parent="IAiVBDc0J_cq1cuzVByV-9">
          <mxGeometry x="37" y="110" width="30" height="30" as="geometry" />
        </mxCell>
        <mxCell id="IAiVBDc0J_cq1cuzVByV-26" value="计算属性watcher(Watcher)" style="swimlane;fontStyle=0;childLayout=stackLayout;horizontal=1;startSize=30;horizontalStack=0;resizeParent=1;resizeParentMax=0;resizeLast=0;collapsible=1;marginBottom=0;" parent="WIyWlLk6GJQsqaUBKTNV-1" vertex="1">
          <mxGeometry x="4199" y="625" width="190" height="180" as="geometry">
            <mxRectangle x="2660" y="1020" width="180" height="30" as="alternateBounds" />
          </mxGeometry>
        </mxCell>
        <mxCell id="IAiVBDc0J_cq1cuzVByV-27" value="lazy: boolean" style="text;strokeColor=none;fillColor=none;align=left;verticalAlign=middle;spacingLeft=4;spacingRight=4;overflow=hidden;points=[[0,0.5],[1,0.5]];portConstraint=eastwest;rotatable=0;" parent="IAiVBDc0J_cq1cuzVByV-26" vertex="1">
          <mxGeometry y="30" width="190" height="30" as="geometry" />
        </mxCell>
        <mxCell id="IAiVBDc0J_cq1cuzVByV-28" value="dirty: boolean" style="text;strokeColor=none;fillColor=none;align=left;verticalAlign=middle;spacingLeft=4;spacingRight=4;overflow=hidden;points=[[0,0.5],[1,0.5]];portConstraint=eastwest;rotatable=0;" parent="IAiVBDc0J_cq1cuzVByV-26" vertex="1">
          <mxGeometry y="60" width="190" height="30" as="geometry" />
        </mxCell>
        <mxCell id="IAiVBDc0J_cq1cuzVByV-29" value="get()" style="text;strokeColor=none;fillColor=none;align=left;verticalAlign=middle;spacingLeft=4;spacingRight=4;overflow=hidden;points=[[0,0.5],[1,0.5]];portConstraint=eastwest;rotatable=0;" parent="IAiVBDc0J_cq1cuzVByV-26" vertex="1">
          <mxGeometry y="90" width="190" height="30" as="geometry" />
        </mxCell>
        <mxCell id="IAiVBDc0J_cq1cuzVByV-31" value="update()" style="text;strokeColor=none;fillColor=none;align=left;verticalAlign=middle;spacingLeft=4;spacingRight=4;overflow=hidden;points=[[0,0.5],[1,0.5]];portConstraint=eastwest;rotatable=0;" parent="IAiVBDc0J_cq1cuzVByV-26" vertex="1">
          <mxGeometry y="120" width="190" height="30" as="geometry" />
        </mxCell>
        <mxCell id="IAiVBDc0J_cq1cuzVByV-36" value="evaluate()" style="text;strokeColor=none;fillColor=none;align=left;verticalAlign=middle;spacingLeft=4;spacingRight=4;overflow=hidden;points=[[0,0.5],[1,0.5]];portConstraint=eastwest;rotatable=0;" parent="IAiVBDc0J_cq1cuzVByV-26" vertex="1">
          <mxGeometry y="150" width="190" height="30" as="geometry" />
        </mxCell>
        <mxCell id="IAiVBDc0J_cq1cuzVByV-44" value="" style="curved=1;endArrow=classic;html=1;rounded=0;exitX=0;exitY=0.5;exitDx=0;exitDy=0;" parent="IAiVBDc0J_cq1cuzVByV-26" source="IAiVBDc0J_cq1cuzVByV-31" target="IAiVBDc0J_cq1cuzVByV-28" edge="1">
          <mxGeometry width="50" height="50" relative="1" as="geometry">
            <mxPoint x="-60" y="130" as="sourcePoint" />
            <mxPoint x="-10" y="80" as="targetPoint" />
            <Array as="points">
              <mxPoint x="-10" y="130" />
              <mxPoint x="-60" y="80" />
            </Array>
          </mxGeometry>
        </mxCell>
        <mxCell id="IAiVBDc0J_cq1cuzVByV-45" value="设置dirty为true" style="edgeLabel;html=1;align=center;verticalAlign=middle;resizable=0;points=[];" parent="IAiVBDc0J_cq1cuzVByV-44" vertex="1" connectable="0">
          <mxGeometry x="-0.0752" y="-2" relative="1" as="geometry">
            <mxPoint as="offset" />
          </mxGeometry>
        </mxCell>
        <mxCell id="IAiVBDc0J_cq1cuzVByV-37" value="开始" style="ellipse;whiteSpace=wrap;html=1;" parent="WIyWlLk6GJQsqaUBKTNV-1" vertex="1">
          <mxGeometry x="2740" y="1025" width="120" height="80" as="geometry" />
        </mxCell>
        <mxCell id="IAiVBDc0J_cq1cuzVByV-38" value="" style="endArrow=classic;html=1;rounded=0;" parent="WIyWlLk6GJQsqaUBKTNV-1" source="IAiVBDc0J_cq1cuzVByV-37" target="IAiVBDc0J_cq1cuzVByV-1" edge="1">
          <mxGeometry width="50" height="50" relative="1" as="geometry">
            <mxPoint x="3219" y="1095" as="sourcePoint" />
            <mxPoint x="3269" y="1045" as="targetPoint" />
          </mxGeometry>
        </mxCell>
        <mxCell id="IAiVBDc0J_cq1cuzVByV-40" value="修改计算属性依赖数据" style="edgeLabel;html=1;align=center;verticalAlign=middle;resizable=0;points=[];" parent="IAiVBDc0J_cq1cuzVByV-38" vertex="1" connectable="0">
          <mxGeometry x="-0.2047" y="-2" relative="1" as="geometry">
            <mxPoint as="offset" />
          </mxGeometry>
        </mxCell>
        <mxCell id="IAiVBDc0J_cq1cuzVByV-39" value="1" style="ellipse;whiteSpace=wrap;html=1;aspect=fixed;fillColor=#d5e8d4;strokeColor=#82b366;" parent="WIyWlLk6GJQsqaUBKTNV-1" vertex="1">
          <mxGeometry x="2870" y="1045" width="30" height="30" as="geometry" />
        </mxCell>
        <mxCell id="IAiVBDc0J_cq1cuzVByV-41" value="setter调用数据对应的依赖dep的notify" style="endArrow=classic;html=1;rounded=0;exitX=1;exitY=0.5;exitDx=0;exitDy=0;entryX=0;entryY=0.5;entryDx=0;entryDy=0;" parent="WIyWlLk6GJQsqaUBKTNV-1" source="IAiVBDc0J_cq1cuzVByV-2" target="IAiVBDc0J_cq1cuzVByV-48" edge="1">
          <mxGeometry width="50" height="50" relative="1" as="geometry">
            <mxPoint x="3219" y="1025" as="sourcePoint" />
            <mxPoint x="3269" y="975" as="targetPoint" />
          </mxGeometry>
        </mxCell>
        <mxCell id="IAiVBDc0J_cq1cuzVByV-46" value="" style="endArrow=classic;html=1;rounded=0;entryX=0;entryY=0.5;entryDx=0;entryDy=0;" parent="WIyWlLk6GJQsqaUBKTNV-1" source="IAiVBDc0J_cq1cuzVByV-10" target="IAiVBDc0J_cq1cuzVByV-31" edge="1">
          <mxGeometry width="50" height="50" relative="1" as="geometry">
            <mxPoint x="3699" y="1075" as="sourcePoint" />
            <mxPoint x="3749" y="1025" as="targetPoint" />
          </mxGeometry>
        </mxCell>
        <mxCell id="IAiVBDc0J_cq1cuzVByV-47" value="调用update方法" style="edgeLabel;html=1;align=center;verticalAlign=middle;resizable=0;points=[];" parent="IAiVBDc0J_cq1cuzVByV-46" vertex="1" connectable="0">
          <mxGeometry x="-0.0899" relative="1" as="geometry">
            <mxPoint y="-6" as="offset" />
          </mxGeometry>
        </mxCell>
        <mxCell id="I4gWAZDMXV9Th8KUNQO9-1" value="2" style="ellipse;whiteSpace=wrap;html=1;aspect=fixed;fillColor=#d5e8d4;strokeColor=#82b366;" vertex="1" parent="WIyWlLk6GJQsqaUBKTNV-1">
          <mxGeometry x="3450" y="880" width="30" height="30" as="geometry" />
        </mxCell>
        <mxCell id="I4gWAZDMXV9Th8KUNQO9-3" value="4" style="ellipse;whiteSpace=wrap;html=1;aspect=fixed;fillColor=#d5e8d4;strokeColor=#82b366;" vertex="1" parent="WIyWlLk6GJQsqaUBKTNV-1">
          <mxGeometry x="3939" y="785" width="30" height="30" as="geometry" />
        </mxCell>
        <mxCell id="I4gWAZDMXV9Th8KUNQO9-6" value="5" style="ellipse;whiteSpace=wrap;html=1;aspect=fixed;fillColor=#d5e8d4;strokeColor=#82b366;" vertex="1" parent="WIyWlLk6GJQsqaUBKTNV-1">
          <mxGeometry x="4079" y="695" width="30" height="30" as="geometry" />
        </mxCell>
        <mxCell id="I4gWAZDMXV9Th8KUNQO9-17" value="渲染watcher(Watcher)" style="swimlane;fontStyle=0;childLayout=stackLayout;horizontal=1;startSize=30;horizontalStack=0;resizeParent=1;resizeParentMax=0;resizeLast=0;collapsible=1;marginBottom=0;" vertex="1" parent="WIyWlLk6GJQsqaUBKTNV-1">
          <mxGeometry x="4199" y="905" width="190" height="120" as="geometry">
            <mxRectangle x="2660" y="1020" width="180" height="30" as="alternateBounds" />
          </mxGeometry>
        </mxCell>
        <mxCell id="I4gWAZDMXV9Th8KUNQO9-20" value="get()" style="text;strokeColor=none;fillColor=none;align=left;verticalAlign=middle;spacingLeft=4;spacingRight=4;overflow=hidden;points=[[0,0.5],[1,0.5]];portConstraint=eastwest;rotatable=0;" vertex="1" parent="I4gWAZDMXV9Th8KUNQO9-17">
          <mxGeometry y="30" width="190" height="30" as="geometry" />
        </mxCell>
        <mxCell id="I4gWAZDMXV9Th8KUNQO9-21" value="update()" style="text;strokeColor=none;fillColor=none;align=left;verticalAlign=middle;spacingLeft=4;spacingRight=4;overflow=hidden;points=[[0,0.5],[1,0.5]];portConstraint=eastwest;rotatable=0;" vertex="1" parent="I4gWAZDMXV9Th8KUNQO9-17">
          <mxGeometry y="60" width="190" height="30" as="geometry" />
        </mxCell>
        <mxCell id="I4gWAZDMXV9Th8KUNQO9-22" value="evaluate()" style="text;strokeColor=none;fillColor=none;align=left;verticalAlign=middle;spacingLeft=4;spacingRight=4;overflow=hidden;points=[[0,0.5],[1,0.5]];portConstraint=eastwest;rotatable=0;" vertex="1" parent="I4gWAZDMXV9Th8KUNQO9-17">
          <mxGeometry y="90" width="190" height="30" as="geometry" />
        </mxCell>
        <mxCell id="I4gWAZDMXV9Th8KUNQO9-23" value="" style="curved=1;endArrow=classic;html=1;rounded=0;exitX=0;exitY=0.5;exitDx=0;exitDy=0;entryX=0;entryY=0.5;entryDx=0;entryDy=0;" edge="1" parent="I4gWAZDMXV9Th8KUNQO9-17" source="I4gWAZDMXV9Th8KUNQO9-21" target="I4gWAZDMXV9Th8KUNQO9-20">
          <mxGeometry width="50" height="50" relative="1" as="geometry">
            <mxPoint x="-60" y="130" as="sourcePoint" />
            <mxPoint x="-10" y="100" as="targetPoint" />
            <Array as="points">
              <mxPoint x="-40" y="70" />
              <mxPoint x="-60" y="30" />
              <mxPoint x="-20" y="20" />
            </Array>
          </mxGeometry>
        </mxCell>
        <mxCell id="I4gWAZDMXV9Th8KUNQO9-24" value="调用get方法" style="edgeLabel;html=1;align=center;verticalAlign=middle;resizable=0;points=[];" vertex="1" connectable="0" parent="I4gWAZDMXV9Th8KUNQO9-23">
          <mxGeometry x="-0.0752" y="-2" relative="1" as="geometry">
            <mxPoint as="offset" />
          </mxGeometry>
        </mxCell>
        <mxCell id="I4gWAZDMXV9Th8KUNQO9-29" value="调用update方法" style="endArrow=classic;html=1;rounded=0;entryX=0;entryY=0.5;entryDx=0;entryDy=0;" edge="1" parent="WIyWlLk6GJQsqaUBKTNV-1" source="IAiVBDc0J_cq1cuzVByV-12" target="I4gWAZDMXV9Th8KUNQO9-21">
          <mxGeometry width="50" height="50" relative="1" as="geometry">
            <mxPoint x="3679" y="935" as="sourcePoint" />
            <mxPoint x="3729" y="885" as="targetPoint" />
          </mxGeometry>
        </mxCell>
        <mxCell id="I4gWAZDMXV9Th8KUNQO9-30" value="6" style="ellipse;whiteSpace=wrap;html=1;aspect=fixed;fillColor=#d5e8d4;strokeColor=#82b366;" vertex="1" parent="WIyWlLk6GJQsqaUBKTNV-1">
          <mxGeometry x="3959" y="955" width="30" height="30" as="geometry" />
        </mxCell>
        <mxCell id="I4gWAZDMXV9Th8KUNQO9-32" value="7" style="ellipse;whiteSpace=wrap;html=1;aspect=fixed;fillColor=#d5e8d4;strokeColor=#82b366;" vertex="1" parent="WIyWlLk6GJQsqaUBKTNV-1">
          <mxGeometry x="4079" y="925" width="30" height="30" as="geometry" />
        </mxCell>
        <mxCell id="I4gWAZDMXV9Th8KUNQO9-43" value="生成新的虚拟dom" style="edgeStyle=orthogonalEdgeStyle;rounded=0;orthogonalLoop=1;jettySize=auto;html=1;entryX=1;entryY=0.5;entryDx=0;entryDy=0;" edge="1" parent="WIyWlLk6GJQsqaUBKTNV-1" source="I4gWAZDMXV9Th8KUNQO9-38" target="I4gWAZDMXV9Th8KUNQO9-41">
          <mxGeometry relative="1" as="geometry" />
        </mxCell>
        <mxCell id="I4gWAZDMXV9Th8KUNQO9-38" value="updateComponent" style="rounded=1;whiteSpace=wrap;html=1;" vertex="1" parent="WIyWlLk6GJQsqaUBKTNV-1">
          <mxGeometry x="4159" y="1305" width="120" height="60" as="geometry" />
        </mxCell>
        <mxCell id="I4gWAZDMXV9Th8KUNQO9-40" value="调用getter即updateComponent方法" style="edgeStyle=orthogonalEdgeStyle;rounded=0;orthogonalLoop=1;jettySize=auto;html=1;entryX=1;entryY=0.5;entryDx=0;entryDy=0;exitX=1;exitY=0.5;exitDx=0;exitDy=0;" edge="1" parent="WIyWlLk6GJQsqaUBKTNV-1" source="I4gWAZDMXV9Th8KUNQO9-20" target="I4gWAZDMXV9Th8KUNQO9-38">
          <mxGeometry relative="1" as="geometry">
            <mxPoint x="4359" y="1185" as="targetPoint" />
            <Array as="points">
              <mxPoint x="4409" y="950" />
              <mxPoint x="4409" y="1335" />
            </Array>
          </mxGeometry>
        </mxCell>
        <mxCell id="I4gWAZDMXV9Th8KUNQO9-41" value="render" style="rounded=1;whiteSpace=wrap;html=1;" vertex="1" parent="WIyWlLk6GJQsqaUBKTNV-1">
          <mxGeometry x="3799" y="1305" width="120" height="60" as="geometry" />
        </mxCell>
        <mxCell id="I4gWAZDMXV9Th8KUNQO9-42" value="8" style="ellipse;whiteSpace=wrap;html=1;aspect=fixed;fillColor=#d5e8d4;strokeColor=#82b366;" vertex="1" parent="WIyWlLk6GJQsqaUBKTNV-1">
          <mxGeometry x="4279" y="1182.5" width="30" height="30" as="geometry" />
        </mxCell>
        <mxCell id="I4gWAZDMXV9Th8KUNQO9-45" value="9" style="ellipse;whiteSpace=wrap;html=1;aspect=fixed;fillColor=#d5e8d4;strokeColor=#82b366;" vertex="1" parent="WIyWlLk6GJQsqaUBKTNV-1">
          <mxGeometry x="3959" y="1313.75" width="30" height="30" as="geometry" />
        </mxCell>
        <mxCell id="I4gWAZDMXV9Th8KUNQO9-47" value="" style="endArrow=classic;html=1;rounded=0;exitX=0;exitY=0.5;exitDx=0;exitDy=0;entryX=0.434;entryY=1;entryDx=0;entryDy=0;entryPerimeter=0;" edge="1" parent="WIyWlLk6GJQsqaUBKTNV-1" source="I4gWAZDMXV9Th8KUNQO9-41" target="IAiVBDc0J_cq1cuzVByV-3">
          <mxGeometry width="50" height="50" relative="1" as="geometry">
            <mxPoint x="3839" y="1145" as="sourcePoint" />
            <mxPoint x="3889" y="1095" as="targetPoint" />
            <Array as="points">
              <mxPoint x="3240" y="1340" />
            </Array>
          </mxGeometry>
        </mxCell>
        <mxCell id="I4gWAZDMXV9Th8KUNQO9-48" value="解析页面引用时读取计算属性依赖数据触发computedGetter" style="edgeLabel;html=1;align=center;verticalAlign=middle;resizable=0;points=[];" vertex="1" connectable="0" parent="I4gWAZDMXV9Th8KUNQO9-47">
          <mxGeometry x="-0.1373" y="-3" relative="1" as="geometry">
            <mxPoint x="-1" as="offset" />
          </mxGeometry>
        </mxCell>
        <mxCell id="I4gWAZDMXV9Th8KUNQO9-49" value="10" style="ellipse;whiteSpace=wrap;html=1;aspect=fixed;fillColor=#d5e8d4;strokeColor=#82b366;" vertex="1" parent="WIyWlLk6GJQsqaUBKTNV-1">
          <mxGeometry x="3270" y="1320" width="30" height="30" as="geometry" />
        </mxCell>
        <mxCell id="I4gWAZDMXV9Th8KUNQO9-53" value="因为第5步将dirty设置为true，所以会调用计算属性watcher的evaluate方法求值" style="endArrow=classic;html=1;rounded=0;exitX=0.924;exitY=-0.1;exitDx=0;exitDy=0;exitPerimeter=0;entryX=0;entryY=0;entryDx=0;entryDy=0;" edge="1" parent="WIyWlLk6GJQsqaUBKTNV-1" source="IAiVBDc0J_cq1cuzVByV-3" target="IAiVBDc0J_cq1cuzVByV-26">
          <mxGeometry x="0.4247" width="50" height="50" relative="1" as="geometry">
            <mxPoint x="3839" y="1085" as="sourcePoint" />
            <mxPoint x="3400" y="450" as="targetPoint" />
            <Array as="points">
              <mxPoint x="3398" y="625" />
              <mxPoint x="3880" y="625" />
            </Array>
            <mxPoint as="offset" />
          </mxGeometry>
        </mxCell>
        <mxCell id="I4gWAZDMXV9Th8KUNQO9-55" value="Vue组件" style="swimlane;fontStyle=0;childLayout=stackLayout;horizontal=1;startSize=30;horizontalStack=0;resizeParent=1;resizeParentMax=0;resizeLast=0;collapsible=1;marginBottom=0;" vertex="1" parent="WIyWlLk6GJQsqaUBKTNV-1">
          <mxGeometry x="3140" y="790" width="210" height="130" as="geometry" />
        </mxCell>
        <mxCell id="I4gWAZDMXV9Th8KUNQO9-56" value="data: {&#xa;    依赖数据: {getter, setter}&#xa;}" style="text;strokeColor=none;fillColor=none;align=left;verticalAlign=middle;spacingLeft=4;spacingRight=4;overflow=hidden;points=[[0,0.5],[1,0.5]];portConstraint=eastwest;rotatable=0;" vertex="1" parent="I4gWAZDMXV9Th8KUNQO9-55">
          <mxGeometry y="30" width="210" height="50" as="geometry" />
        </mxCell>
        <mxCell id="I4gWAZDMXV9Th8KUNQO9-57" value="computed: {&#xa;    计算属性：计算属性取值函数&#xa;}" style="text;strokeColor=none;fillColor=none;align=left;verticalAlign=middle;spacingLeft=4;spacingRight=4;overflow=hidden;points=[[0,0.5],[1,0.5]];portConstraint=eastwest;rotatable=0;" vertex="1" parent="I4gWAZDMXV9Th8KUNQO9-55">
          <mxGeometry y="80" width="210" height="50" as="geometry" />
        </mxCell>
        <mxCell id="I4gWAZDMXV9Th8KUNQO9-58" value="" style="endArrow=none;dashed=1;html=1;dashPattern=1 3;strokeWidth=2;rounded=0;exitX=0.471;exitY=1;exitDx=0;exitDy=0;exitPerimeter=0;" edge="1" parent="WIyWlLk6GJQsqaUBKTNV-1" source="I4gWAZDMXV9Th8KUNQO9-57">
          <mxGeometry width="50" height="50" relative="1" as="geometry">
            <mxPoint x="3170" y="1160" as="sourcePoint" />
            <mxPoint x="3240" y="1010" as="targetPoint" />
          </mxGeometry>
        </mxCell>
        <mxCell id="I4gWAZDMXV9Th8KUNQO9-59" value="initComputed等初始化" style="edgeLabel;html=1;align=center;verticalAlign=middle;resizable=0;points=[];" vertex="1" connectable="0" parent="I4gWAZDMXV9Th8KUNQO9-58">
          <mxGeometry x="-0.3438" relative="1" as="geometry">
            <mxPoint x="31" as="offset" />
          </mxGeometry>
        </mxCell>
        <mxCell id="I4gWAZDMXV9Th8KUNQO9-62" value="11" style="ellipse;whiteSpace=wrap;html=1;aspect=fixed;fillColor=#d5e8d4;strokeColor=#82b366;" vertex="1" parent="WIyWlLk6GJQsqaUBKTNV-1">
          <mxGeometry x="3610" y="610" width="30" height="30" as="geometry" />
        </mxCell>
        <mxCell id="I4gWAZDMXV9Th8KUNQO9-63" value="" style="endArrow=classic;html=1;rounded=0;exitX=0;exitY=0.5;exitDx=0;exitDy=0;entryX=0.5;entryY=0;entryDx=0;entryDy=0;" edge="1" parent="WIyWlLk6GJQsqaUBKTNV-1" source="IAiVBDc0J_cq1cuzVByV-36" target="I4gWAZDMXV9Th8KUNQO9-55">
          <mxGeometry width="50" height="50" relative="1" as="geometry">
            <mxPoint x="4320" y="480" as="sourcePoint" />
            <mxPoint x="2780" y="630" as="targetPoint" />
            <Array as="points">
              <mxPoint x="4480" y="790" />
              <mxPoint x="4480" y="560" />
              <mxPoint x="3245" y="560" />
            </Array>
          </mxGeometry>
        </mxCell>
        <mxCell id="I4gWAZDMXV9Th8KUNQO9-64" value="调用用户自定义的计算属性取值函数求值" style="edgeLabel;html=1;align=center;verticalAlign=middle;resizable=0;points=[];" vertex="1" connectable="0" parent="I4gWAZDMXV9Th8KUNQO9-63">
          <mxGeometry x="-0.0196" y="1" relative="1" as="geometry">
            <mxPoint as="offset" />
          </mxGeometry>
        </mxCell>
        <mxCell id="I4gWAZDMXV9Th8KUNQO9-65" value="12" style="ellipse;whiteSpace=wrap;html=1;aspect=fixed;fillColor=#d5e8d4;strokeColor=#82b366;" vertex="1" parent="WIyWlLk6GJQsqaUBKTNV-1">
          <mxGeometry x="3580" y="550" width="30" height="30" as="geometry" />
        </mxCell>
      </root>
    </mxGraphModel>
  </diagram>
</mxfile>
